<svg width="210" height="60" viewBox="0 0 210 60" fill="none" xmlns="http://www.w3.org/2000/svg">
<mask id="mask0_110_79" style="mask-type:luminance" maskUnits="userSpaceOnUse" x="0" y="0" width="210" height="60">
<path d="M120.867 4.00411V5.93831H123.116V6.61374H120.867V9.00839H120.046V3.32867H123.431V4.00411L120.867 4.00411ZM126.663 9.0851C126.305 9.0851 125.978 9.03396 125.681 8.93167C125.384 8.82931 125.13 8.68345 124.917 8.49411C124.705 8.30486 124.541 8.07716 124.426 7.81102C124.311 7.54497 124.253 7.24821 124.253 6.92076V3.32867H125.067V6.89006C125.067 7.11515 125.105 7.3211 125.182 7.50792C125.259 7.69465 125.366 7.85451 125.504 7.98758C125.642 8.12065 125.81 8.22423 126.007 8.29842C126.204 8.37261 126.423 8.40975 126.663 8.40975C126.899 8.40975 127.114 8.37261 127.308 8.29842C127.502 8.22423 127.669 8.12065 127.807 7.98758C127.945 7.85451 128.053 7.69465 128.129 7.50792C128.206 7.3211 128.244 7.11515 128.244 6.89006V3.32867H129.066V6.92076C129.066 7.24822 129.008 7.54497 128.893 7.81102C128.778 8.07716 128.615 8.30486 128.406 8.49411C128.196 8.68345 127.944 8.82931 127.65 8.93167C127.355 9.03396 127.027 9.0851 126.663 9.0851ZM134.117 4.00411H132.336V9.00839H131.515V4.00411H129.734V3.32867H134.117L134.117 4.00411ZM137.196 9.0851C136.838 9.0851 136.51 9.03396 136.214 8.93167C135.917 8.82931 135.662 8.68345 135.45 8.49411C135.238 8.30486 135.074 8.07716 134.959 7.81102C134.844 7.54497 134.786 7.24821 134.786 6.92076V3.32867H135.6V6.89006C135.6 7.11515 135.638 7.3211 135.715 7.50792C135.792 7.69465 135.899 7.85451 136.037 7.98758C136.175 8.12065 136.343 8.22423 136.54 8.29842C136.737 8.37261 136.956 8.40975 137.196 8.40975C137.431 8.40975 137.646 8.37261 137.841 8.29842C138.035 8.22423 138.202 8.12065 138.34 7.98758C138.478 7.85451 138.585 7.69465 138.662 7.50792C138.739 7.3211 138.777 7.11515 138.777 6.89006V3.32867H139.598V6.92076C139.598 7.24822 139.541 7.54497 139.426 7.81102C139.311 8.07716 139.148 8.30486 138.938 8.49411C138.729 8.68345 138.477 8.82931 138.182 8.93167C137.888 9.03396 137.559 9.0851 137.196 9.0851ZM144.519 9.00839L143.107 6.79795H143.038H141.71V9.00839H140.889V3.32867H143.123C143.414 3.32867 143.679 3.36963 143.917 3.45148C144.155 3.5334 144.359 3.65108 144.531 3.80458C144.702 3.95809 144.834 4.141 144.926 4.35339C145.018 4.56569 145.064 4.80235 145.064 5.06335C145.064 5.44708 144.963 5.77584 144.761 6.04954C144.559 6.32333 144.281 6.52416 143.928 6.65209L145.479 9.00838L144.519 9.00839ZM141.71 6.12252H142.977C143.35 6.12252 143.65 6.02659 143.875 5.83464C144.1 5.64278 144.212 5.38568 144.212 5.06336C144.212 4.74095 144.104 4.48385 143.886 4.29199C143.669 4.10004 143.381 4.00411 143.023 4.00411H141.71V6.12252ZM149.993 8.33295V9.00839H146.263V3.32867H149.932V4.00411H147.084V5.7848H149.717V6.46023H147.084V8.33295L149.993 8.33295ZM156.885 4.00411H155.105V9.00839H154.284V4.00411H152.503V3.32867H156.885V4.00411ZM161.354 8.33295V9.00839H157.623V3.32867H161.292V4.00411H158.445V5.7848H161.077V6.46023H158.445V8.33295L161.354 8.33295ZM164.993 9.0851C164.553 9.0851 164.152 9.01482 163.792 8.8741C163.431 8.73338 163.121 8.53508 162.863 8.27921C162.605 8.02341 162.405 7.71509 162.264 7.35442C162.124 6.99365 162.053 6.59323 162.053 6.15323C162.053 5.71827 162.124 5.32176 162.264 4.96352C162.405 4.60536 162.603 4.29965 162.859 4.04638C163.115 3.79303 163.423 3.59734 163.784 3.45922C164.145 3.32103 164.545 3.25197 164.985 3.25197C165.451 3.25197 165.864 3.33129 166.225 3.48993C166.585 3.64848 166.901 3.87626 167.173 4.17302L166.658 4.69494C166.479 4.46977 166.252 4.28556 165.975 4.14231C165.699 3.99899 165.377 3.9274 165.008 3.9274C164.691 3.9274 164.403 3.98115 164.145 4.08857C163.886 4.19606 163.665 4.34697 163.481 4.54144C163.297 4.73583 163.155 4.96996 163.055 5.24366C162.955 5.51745 162.905 5.82064 162.905 6.15323C162.905 6.49094 162.955 6.79796 163.055 7.07427C163.155 7.35051 163.297 7.58847 163.481 7.78807C163.665 7.98759 163.886 8.14109 164.145 8.24851C164.403 8.35601 164.688 8.40975 165.001 8.40975C165.41 8.40975 165.762 8.324 166.056 8.15258C166.35 7.98115 166.594 7.74963 166.789 7.458L167.349 7.96454C167.083 8.31765 166.752 8.59266 166.355 8.78965C165.959 8.98665 165.505 9.0851 164.993 9.0851ZM173.091 3.32867V9.00839H172.278V6.46023H168.993V9.00839H168.172V3.32867H168.993V5.77714H172.278V3.32867H173.091ZM174.451 3.32867H174.965L178.741 7.6115L178.718 3.32867H179.54V9.00839H179.025L175.257 4.72564L175.272 9.00839H174.451L174.451 3.32867ZM183.448 9.0851C183.013 9.0851 182.616 9.01482 182.258 8.8741C181.9 8.73338 181.594 8.53638 181.341 8.28311C181.088 8.02977 180.891 7.72275 180.75 7.36207C180.609 7.0013 180.539 6.60349 180.539 6.16853C180.539 5.72853 180.609 5.32941 180.75 4.97125C180.891 4.61301 181.088 4.3073 181.341 4.05403C181.594 3.80076 181.9 3.60376 182.258 3.46304C182.616 3.32232 183.013 3.25196 183.448 3.25196C183.883 3.25196 184.278 3.32232 184.633 3.46304C184.989 3.60376 185.294 3.80076 185.547 4.05403C185.8 4.30729 185.997 4.61301 186.138 4.97125C186.279 5.32941 186.349 5.72853 186.349 6.16853C186.349 6.60348 186.279 7.0013 186.138 7.36207C185.997 7.72275 185.8 8.02977 185.547 8.28311C185.294 8.53638 184.989 8.73338 184.633 8.8741C184.278 9.01482 183.883 9.0851 183.448 9.0851ZM183.448 8.40975C183.755 8.40975 184.035 8.356 184.288 8.2485C184.541 8.14109 184.758 7.98888 184.937 7.79189C185.116 7.59489 185.255 7.35946 185.355 7.08575C185.455 6.81196 185.505 6.50625 185.505 6.16853C185.505 5.83081 185.455 5.5251 185.355 5.25139C185.255 4.9776 185.116 4.74225 184.937 4.54525C184.758 4.34826 184.541 4.19605 184.288 4.08856C184.035 3.98114 183.755 3.92739 183.448 3.92739C183.141 3.92739 182.86 3.98114 182.607 4.08856C182.354 4.19605 182.136 4.34826 181.955 4.54525C181.773 4.74225 181.634 4.9776 181.536 5.25139C181.439 5.5251 181.391 5.83081 181.391 6.16853C181.391 6.50625 181.439 6.81196 181.536 7.08575C181.634 7.35946 181.773 7.59489 181.955 7.79189C182.136 7.98888 182.354 8.14109 182.607 8.2485C182.86 8.356 183.141 8.40975 183.448 8.40975ZM190.763 8.33295V9.00839H187.348V3.32867H188.169V8.33295L190.763 8.33295ZM194.057 9.0851C193.622 9.0851 193.226 9.01482 192.868 8.8741C192.509 8.73338 192.204 8.53638 191.95 8.28311C191.697 8.02977 191.5 7.72275 191.359 7.36207C191.219 7.0013 191.148 6.60349 191.148 6.16853C191.148 5.72853 191.219 5.32941 191.359 4.97125C191.5 4.61301 191.697 4.3073 191.95 4.05403C192.204 3.80076 192.509 3.60376 192.868 3.46304C193.226 3.32232 193.622 3.25196 194.057 3.25196C194.492 3.25196 194.887 3.32232 195.243 3.46304C195.599 3.60376 195.903 3.80076 196.156 4.05403C196.41 4.30729 196.607 4.61301 196.747 4.97125C196.888 5.32941 196.958 5.72853 196.958 6.16853C196.958 6.60348 196.888 7.0013 196.747 7.36207C196.607 7.72275 196.41 8.02977 196.156 8.28311C195.903 8.53638 195.599 8.73338 195.243 8.8741C194.887 9.01482 194.492 9.0851 194.057 9.0851ZM194.057 8.40975C194.364 8.40975 194.644 8.356 194.898 8.2485C195.151 8.14109 195.367 7.98888 195.546 7.79189C195.725 7.59489 195.865 7.35946 195.965 7.08575C196.064 6.81196 196.114 6.50625 196.114 6.16853C196.114 5.83081 196.064 5.5251 195.965 5.25139C195.865 4.9776 195.725 4.74225 195.546 4.54525C195.367 4.34826 195.151 4.19605 194.898 4.08856C194.644 3.98114 194.364 3.92739 194.057 3.92739C193.75 3.92739 193.47 3.98114 193.217 4.08856C192.964 4.19605 192.746 4.34826 192.564 4.54525C192.383 4.74225 192.243 4.9776 192.146 5.25139C192.049 5.5251 192 5.83081 192 6.16853C192 6.50625 192.049 6.81196 192.146 7.08575C192.243 7.35946 192.383 7.59489 192.564 7.79189C192.746 7.98888 192.964 8.14109 193.217 8.2485C193.47 8.356 193.75 8.40975 194.057 8.40975ZM203.177 5.90761C203.182 5.94849 203.184 5.99206 203.184 6.03807C203.184 6.08416 203.184 6.12765 203.184 6.16853C203.184 6.60861 203.12 7.00896 202.992 7.36972C202.864 7.73048 202.682 8.0375 202.444 8.29077C202.206 8.54403 201.919 8.73973 201.584 8.87792C201.249 9.01604 200.871 9.0851 200.452 9.0851C200.022 9.0851 199.633 9.01482 199.285 8.8741C198.937 8.73337 198.638 8.53638 198.387 8.28311C198.137 8.02976 197.943 7.72275 197.808 7.36206C197.672 7.0013 197.604 6.60348 197.604 6.16853C197.604 5.72852 197.672 5.3294 197.808 4.97124C197.943 4.613 198.135 4.30729 198.383 4.05402C198.632 3.80075 198.931 3.60376 199.281 3.46304C199.632 3.32231 200.022 3.25195 200.452 3.25195C200.846 3.25195 201.202 3.29927 201.519 3.39398C201.836 3.48861 202.13 3.64342 202.401 3.85833L201.864 4.37252C201.685 4.21901 201.479 4.10647 201.246 4.0348C201.013 3.96322 200.751 3.92739 200.46 3.92739C200.158 3.92739 199.884 3.98114 199.638 4.08855C199.393 4.19605 199.182 4.34825 199.005 4.54525C198.829 4.74224 198.692 4.9776 198.594 5.25139C198.497 5.52509 198.449 5.83081 198.449 6.16853C198.449 6.50624 198.497 6.81196 198.594 7.08575C198.692 7.35946 198.829 7.59489 199.005 7.79188C199.182 7.98888 199.393 8.14108 199.638 8.2485C199.884 8.356 200.158 8.40974 200.46 8.40974C200.731 8.40974 200.978 8.36626 201.2 8.2792C201.423 8.19223 201.615 8.06942 201.776 7.91086C201.937 7.75222 202.066 7.56036 202.163 7.33519C202.261 7.11002 202.317 6.85935 202.332 6.58304H200.682V5.9076L203.177 5.90761ZM208.382 3.32867L206.309 6.8056V9.00839H205.496V6.8056L203.423 3.32867H204.306L205.91 6.07643L207.499 3.32867H208.382Z" fill="white"/>
<path d="M40.1098 35.9109V21.2604C39.4726 20.9795 38.8 20.7709 38.0938 20.6531C37.3875 20.5262 36.7412 20.4631 36.1548 20.4631C33.7685 20.4631 31.9766 21.2513 30.7878 22.8184C29.5898 24.3861 28.9953 26.5605 28.9953 29.3421C28.9953 32.2684 29.4775 34.3978 30.434 35.7113C31.3907 37.0339 32.9241 37.6953 35.0435 37.6953C35.8707 37.6953 36.7412 37.5326 37.6631 37.2062C38.5935 36.8805 39.4035 36.4455 40.1098 35.9109ZM20.4562 23.2605C20.1318 23.2072 19.7468 23.1625 19.3004 23.1266C18.4036 23.0545 17.6514 23.0181 17.0532 23.0181C15.6941 23.0181 14.4983 23.1085 13.4566 23.2808C12.4144 23.4621 11.2913 23.7613 10.0955 24.1865V44.1105H0.527344V14.3203H10.0955V18.6964C12.1972 16.8933 14.0185 15.6976 15.5765 15.0993C17.1259 14.5102 18.5572 14.2111 19.8621 14.2111C20.1971 14.2111 20.5781 14.2202 20.9948 14.2385C21.4202 14.2565 21.792 14.2839 22.1093 14.3203V19.6037C22.5293 18.9163 22.995 18.2785 23.5069 17.6906C24.6529 16.368 26.0398 15.3347 27.677 14.6007C29.3057 13.8671 30.9423 13.5049 32.5795 13.5049C34.182 13.5049 35.526 13.6949 36.6117 14.0753C37.6973 14.4471 38.8434 14.9725 40.0583 15.652L40.3854 14.3203H49.2082V55.0371H40.1098V41.1838C38.6278 42.4433 37.1804 43.3764 35.7588 43.9927C34.3457 44.6177 32.7519 44.9259 30.9858 44.9259C27.5132 44.9259 24.7477 43.5305 22.6797 40.7398C20.6203 37.9404 19.5866 34.1801 19.5866 29.4417C19.5866 27.1438 19.8787 25.0861 20.4562 23.2605Z" fill="white"/>
<path fill-rule="evenodd" clip-rule="evenodd" d="M207.987 23.4531H207.22C206.849 23.308 206.255 23.1994 205.43 23.1266C204.613 23.0543 203.928 23.0181 203.384 23.0181C202.146 23.0181 201.058 23.1084 200.109 23.2808C199.16 23.4621 198.137 23.7612 197.048 24.1865V44.1105H188.336V14.3203H197.048V18.6964C198.962 16.8933 200.62 15.6976 202.039 15.0992C203.45 14.5102 204.753 14.2111 205.941 14.2111C206.246 14.2111 206.593 14.2202 206.972 14.2385C207.36 14.2567 207.698 14.2839 207.987 14.3203V23.4531ZM53.2471 43.6569C53.2627 43.6892 53.3019 43.6541 53.3112 43.7057L53.2945 43.7535C53.2172 43.7966 53.1661 43.6935 53.2471 43.6569ZM62.9861 55.0317C63.0329 55.0477 63.0532 55.1223 62.9785 55.1365C62.9379 55.1006 62.9077 55.0589 62.9861 55.0317ZM63.9061 52.9809C63.7451 52.731 64.1543 52.5452 64.2715 52.7802C64.37 52.9796 64.0736 53.2375 63.9061 52.9809ZM62.9878 49.6227C62.6745 49.183 63.4358 48.9236 63.5462 49.365C63.6133 49.6323 63.2137 49.9385 62.9878 49.6227ZM65.9563 54.2648C65.7524 54.0283 66.1421 53.8262 66.2654 54.0309C66.3761 54.2182 66.1344 54.4694 65.9563 54.2648ZM62.3607 45.6559C62.7212 45.5576 63.0455 46.1292 62.6347 46.347C62.5293 46.4027 62.44 46.4112 62.3607 46.384V55.0371H53.6491V14.3203H62.3607V17.4279C63.6973 16.2587 65.0669 15.3166 66.4607 14.5921C67.8551 13.8671 69.4633 13.5049 71.2868 13.5049C72.2113 13.5049 73.0796 13.6064 73.8915 13.8087C73.9201 13.5253 74.4031 13.3783 74.5521 13.6932C74.6018 13.7999 74.5903 13.9087 74.5425 13.9966C75.1007 14.1807 75.6302 14.4163 76.1312 14.7037C76.1864 14.6615 76.2541 14.6273 76.3354 14.6054C76.6624 14.5164 76.9737 14.8939 76.9122 15.2108C77.3071 15.499 77.682 15.8236 78.0367 16.1851C78.1669 15.8157 78.6683 15.5817 79.008 15.8824C79.3749 16.2085 79.2374 16.8778 78.7306 16.9709C78.8885 17.1691 79.0414 17.3757 79.19 17.5911C81.0711 20.3181 82.0113 24.0601 82.0113 28.8168L82.0107 28.9888C82.2925 29.0023 82.564 29.1562 82.7002 29.4307C82.8976 29.8291 82.7816 30.3222 82.3004 30.5368C82.1787 30.5912 82.0599 30.6163 81.9467 30.6156C81.8941 31.3323 81.8091 32.0287 81.6925 32.705C81.7254 32.6325 81.7683 32.5658 81.8252 32.508C82.3666 31.9589 83.2567 32.1763 83.5066 32.8849C83.6147 33.1963 83.5481 33.5991 83.3654 33.8228C83.0579 34.1986 82.5338 34.1578 82.0622 34.2069C82.0091 34.4265 82.2241 34.6825 82.2692 34.9914C82.2942 35.1573 82.2023 35.4735 82.3166 35.6151C82.414 35.7338 82.7627 35.5961 82.9641 35.5759C83.2559 35.5476 83.5354 35.5822 83.7311 35.741C84.1996 36.1201 84.1962 36.8788 83.9372 37.2125C83.8174 37.365 83.5566 37.5136 83.3293 37.5743C83.0438 37.6506 82.5701 37.6257 82.3844 37.4587C82.2124 37.3041 82.1292 37.0407 82.0786 36.8023C82.0326 36.584 82.1323 36.3451 81.9911 36.1793C81.895 36.0652 81.6186 36.171 81.4417 36.2109C81.1918 36.2644 80.9637 36.2621 80.8512 36.3617C80.7278 36.4701 80.8123 36.7469 80.8326 36.9358C80.8499 37.106 80.7894 37.3914 80.9033 37.527C81.0266 37.6713 81.33 37.5054 81.5504 37.4884C81.8054 37.4672 82.1962 37.5089 82.3429 37.6599C82.5846 37.9115 82.6587 38.3058 82.663 38.5105C82.6712 38.9138 82.4438 39.2848 82.0622 39.4546C81.5107 39.699 80.8136 39.5101 80.6332 38.7297C80.5915 38.5506 80.6603 38.2943 80.5456 38.1479C80.4504 38.0265 80.141 38.1499 79.9402 38.1863C79.9131 38.1912 79.8802 38.1924 79.8432 38.1924C79.6749 38.5091 79.4991 38.8132 79.3153 39.1046L79.3137 39.1216C79.299 39.2903 79.2015 39.5592 79.1168 39.664C79.0127 39.7933 78.8793 39.8876 78.7326 39.951C78.5867 40.1453 78.4366 40.3329 78.2824 40.5134C78.1078 40.7216 77.9301 40.9216 77.7487 41.1142C77.6866 41.3972 77.5095 41.6481 77.2754 41.7682C77.1851 41.8143 77.0883 41.8438 76.9892 41.8581C76.7093 42.1102 76.4219 42.3457 76.1271 42.5647C76.299 42.8927 76.2697 43.3355 75.9114 43.5746C75.4915 43.8552 75.0782 43.6716 74.8694 43.3856L74.8639 43.3778C74.6913 43.4727 74.5163 43.563 74.3393 43.6481C72.871 44.355 71.2948 44.7082 69.6201 44.7082C69.5133 44.7082 69.4077 44.7069 69.3032 44.7053C69.176 44.8308 68.995 44.901 68.7999 44.862C68.7197 44.8463 68.6017 44.7832 68.5047 44.6742C67.4299 44.6066 66.4881 44.4368 65.6774 44.1644C64.596 43.8023 63.4913 43.2951 62.3607 42.6424L62.3607 45.6559ZM64.981 50.8731C64.6822 50.4745 65.3494 50.1878 65.5146 50.5686C65.6409 50.8513 65.2196 51.1974 64.981 50.8731ZM69.0786 58.8918L69.0707 58.8358L69.1441 58.8183C69.1482 58.8581 69.129 58.9095 69.0786 58.8918ZM67.9974 55.5737C67.7333 55.3275 68.1753 55.0797 68.3055 55.2989C68.4226 55.4944 68.1786 55.7391 67.9974 55.5737ZM64.1187 47.467C63.981 47.2623 64.0258 47.0144 64.2813 46.9011C64.7254 46.7056 65.0344 47.3687 64.627 47.5977C64.4513 47.6972 64.2626 47.6796 64.1187 47.467ZM66.9978 52.134C66.7428 51.7841 67.3282 51.4701 67.5004 51.8444C67.6261 52.1172 67.2325 52.4527 66.9978 52.134ZM63.3857 44.1166C62.9148 43.517 64.0424 43.1055 64.1309 43.8285C64.1683 44.1386 63.6549 44.461 63.3857 44.1166ZM70.3303 56.7775C69.9601 57.0771 69.938 56.4736 70.2093 56.5344C70.2794 56.5498 70.3652 56.6748 70.3303 56.7775ZM66.1276 48.792C65.7054 48.2894 66.4944 47.916 66.7437 48.2845C67.0234 48.6981 66.4373 49.1596 66.1276 48.792ZM69.024 53.4499C68.775 53.1355 69.2538 52.8239 69.4538 53.0557C69.6993 53.3417 69.29 53.7847 69.024 53.4499ZM65.3367 45.4092C64.8627 44.8271 65.8421 44.3199 66.1073 44.9257C66.1966 45.1288 66.1813 45.462 65.7821 45.5715C65.6554 45.6068 65.465 45.5633 65.3367 45.4092ZM68.0965 50.0752C67.9326 49.8593 67.9779 49.6108 68.1868 49.4852C68.6925 49.1824 69.0514 49.9516 68.5973 50.1904C68.4269 50.2798 68.2442 50.2706 68.0965 50.0752ZM72.1455 58.1171C72.0623 58.0368 72.0596 57.9439 72.1305 57.8824C72.4792 57.5835 72.4676 58.42 72.1455 58.1171ZM62.3607 36.9054C62.5675 36.9526 62.7358 37.2287 62.5078 37.3857C63.0429 37.6027 63.6125 37.7379 64.2168 37.8045C64.877 37.8768 65.5287 37.9132 66.1719 37.9132C66.5201 37.9132 66.8552 37.8958 67.1764 37.8618C67.022 37.6255 67.0419 37.2982 67.224 37.1271C67.7255 36.6541 68.3376 37.1916 68.245 37.6739C68.9895 37.4852 69.6452 37.1848 70.2117 36.7735C70.2093 36.5757 70.2839 36.3898 70.4203 36.2476C70.6353 36.0242 70.8669 35.9519 71.079 35.9786C71.1592 35.8866 71.2365 35.7917 71.3114 35.6931C71.4308 35.5373 71.5443 35.3725 71.651 35.2C71.4404 34.8036 71.5407 34.3298 71.8907 34.0859C72.0107 34.0017 72.1397 33.95 72.2682 33.9267C72.6629 32.8732 72.8983 31.6086 72.975 30.1304C72.8607 30.0775 72.7606 29.9895 72.6891 29.8756C72.4745 29.5357 72.6186 29.081 73.0026 28.9439C73.0002 28.0391 72.9536 27.2116 72.8625 26.4623C72.8204 26.5395 72.7366 26.638 72.5775 26.6809C72.4784 26.7089 72.3176 26.6756 72.2057 26.543C72.0493 26.3553 72.0592 26.1372 72.1836 26.0086C72.3591 25.8278 72.6443 25.8533 72.8002 26.0077C72.6244 24.8576 72.335 23.9087 71.9323 23.163C71.849 23.324 71.6263 23.4081 71.4723 23.2331C71.254 22.9849 71.4752 22.7638 71.6884 22.7572L71.6502 22.7007C70.7507 21.3871 69.3238 20.735 67.3768 20.735C66.5598 20.735 65.7181 20.8708 64.8438 21.1427C63.9776 21.4236 63.1526 21.8131 62.3607 22.3294V36.9054ZM71.0721 54.7343C70.8211 54.381 71.3878 54.1773 71.527 54.4678C71.6449 54.7146 71.2795 55.0211 71.0721 54.7343ZM67.2342 46.6274C67.2254 46.6122 67.1597 46.4802 67.1536 46.426C67.1058 45.9662 67.8957 45.6366 68.1075 46.2352C68.307 46.7912 67.5164 47.1131 67.2342 46.6274ZM70.09 51.3266C69.9637 51.1159 70.07 50.8336 70.3647 50.7862C70.7822 50.7184 71.0001 51.3918 70.4691 51.5222C70.3469 51.5526 70.1917 51.499 70.09 51.3266ZM74.2678 59.3857C74.1101 59.2314 74.382 59.1184 74.4544 59.2324C74.5033 59.3071 74.4105 59.5243 74.2678 59.3857ZM73.1642 56.0594C72.8821 55.7236 73.5287 55.4591 73.6006 55.8824C73.632 56.0666 73.328 56.2548 73.1642 56.0594ZM69.2594 48.0249C69.0304 47.7408 69.1117 47.345 69.5133 47.2328C69.9999 47.0977 70.4053 47.8945 69.8081 48.1564C69.6058 48.2453 69.4063 48.2086 69.2594 48.0249ZM63.4695 35.2557C63.3128 35.074 63.3866 34.9123 63.544 34.8352C63.845 34.6888 64.0973 35.1614 63.7853 35.3219C63.6676 35.3815 63.5587 35.359 63.4695 35.2557ZM72.1471 52.668C71.8531 52.232 72.5422 51.9384 72.7393 52.3135C72.9177 52.6553 72.4012 53.0401 72.1471 52.668ZM71.2846 49.3417C70.8514 48.8101 71.6817 48.3531 71.9734 48.777C72.2854 49.2303 71.6392 49.7758 71.2846 49.3417ZM75.2777 57.3512C75.1865 57.2462 75.2104 57.0799 75.3346 57.0196C75.5746 56.9046 75.789 57.2758 75.5279 57.4086C75.4327 57.4568 75.3561 57.4411 75.2777 57.3512ZM65.3261 36.5147C65.1939 36.3108 65.2242 36.0718 65.4242 35.9407C65.9699 35.5831 66.3542 36.4459 65.8502 36.6785C65.6658 36.7634 65.4606 36.7231 65.3261 36.5147ZM74.2616 54.0406C73.936 53.6809 74.493 53.3421 74.7075 53.5971C74.9563 53.8947 74.5328 54.3415 74.2616 54.0406ZM70.3985 45.9257C70.2585 45.7034 70.2772 45.4217 70.4402 45.2394C70.8418 44.7919 71.6719 45.2276 71.4243 45.8409C71.2548 46.262 70.6634 46.3522 70.3985 45.9257ZM73.3091 50.6585C73.1391 50.4353 73.2086 50.2354 73.3113 50.132C73.7646 49.6744 74.3512 50.4937 73.8106 50.7726C73.6051 50.8784 73.4356 50.823 73.3091 50.6585ZM64.835 33.206C64.667 33.0323 64.7177 32.7821 64.9815 32.7296C65.1604 32.6944 65.3324 32.9003 65.2793 33.0863C65.2293 33.2665 64.989 33.3637 64.835 33.206ZM77.4407 58.4577C77.4969 58.4237 77.5479 58.4075 77.5946 58.4017C77.6395 58.4379 77.6732 58.5062 77.6749 58.5635C77.5663 58.7115 77.383 58.5968 77.4407 58.4577ZM76.3351 55.2923C76.1401 54.9855 76.6334 54.7346 76.7885 55.027C76.9205 55.2751 76.5387 55.6131 76.3351 55.2923ZM72.4393 47.3151C71.945 46.6699 72.9926 46.1171 73.3305 46.7116C73.6648 47.3028 72.8246 47.8168 72.4393 47.3151ZM66.6741 34.4726C66.4944 34.2044 66.5896 33.9369 66.8542 33.8189C67.3637 33.5909 67.7534 34.3819 67.2401 34.6362C67.0021 34.7545 66.8101 34.6781 66.6741 34.4726ZM75.3994 52.0224C74.9782 51.5497 75.8051 51.1425 75.9994 51.6445C76.1293 51.9826 75.6565 52.3113 75.3994 52.0224ZM74.4812 48.6238C74.0561 48.0169 75.1339 47.5543 75.3147 48.2714C75.4194 48.6867 74.7861 49.0601 74.4812 48.6238ZM78.5224 56.6096C78.4097 56.4848 78.4577 56.3804 78.5077 56.3343C78.7539 56.1069 79.0182 56.5059 78.7651 56.6501C78.6611 56.7096 78.601 56.6954 78.5224 56.6096ZM66.1912 31.1804C65.8592 30.8454 66.4343 30.5447 66.6058 30.8347C66.7483 31.0772 66.4225 31.4152 66.1912 31.1804ZM68.5211 35.8373C68.3482 35.5778 68.3882 35.2636 68.5643 35.0699C68.8309 34.7763 69.3292 34.7962 69.5508 35.1053C69.9807 35.707 69.2401 36.3399 68.7312 36.0565C68.6489 36.0109 68.5993 35.9544 68.5211 35.8373ZM77.5058 53.3393C77.104 52.905 77.9275 52.5623 78.0395 53.0747C78.0832 53.2723 77.7298 53.5808 77.5058 53.3393ZM73.6266 45.3139C72.9895 44.3912 74.7038 43.8195 74.7995 44.914C74.812 45.0591 74.7386 45.2863 74.6214 45.4064C74.2858 45.7461 73.8432 45.6283 73.6266 45.3139ZM76.57 49.9889C76.1487 49.4418 77.1984 49.0183 77.2829 49.7162C77.3199 50.0255 76.8395 50.3374 76.57 49.9889ZM68.0554 32.4564C67.7057 31.945 68.5351 31.4656 68.8167 31.9972C69.0653 32.4656 68.374 32.9229 68.0554 32.4564ZM80.8729 57.6841C80.9738 58.1465 80.4577 57.62 80.8729 57.6841ZM79.6283 54.6077C79.3656 54.2759 79.9069 54.0741 80.0419 54.342C80.1537 54.5611 79.8313 54.8623 79.6283 54.6077ZM75.7246 46.6946C75.1991 46.0558 76.2622 45.4279 76.6074 46.0755C76.9055 46.6354 76.123 47.1812 75.7246 46.6946ZM69.9027 33.8613C69.6427 33.4871 69.7726 32.8655 70.3919 32.8115C70.499 32.8021 70.7376 32.8677 70.8431 32.9508C71.3242 33.3261 71.0956 34.1588 70.4345 34.1619C70.3033 34.1627 70.0721 34.1053 69.9027 33.8613ZM67.5566 29.1317C67.4009 28.957 67.4871 28.8044 67.6457 28.744C67.9546 28.6279 68.1319 29.1546 67.7413 29.2214C67.6873 29.23 67.6119 29.1951 67.5566 29.1317ZM78.6933 51.3374C78.5122 51.1349 78.5669 50.8403 78.8726 50.7643C79.225 50.6767 79.4512 51.227 79.072 51.4121C78.9459 51.4743 78.806 51.4645 78.6933 51.3374ZM77.8141 48.0203C77.3173 47.4298 78.396 46.97 78.575 47.6426C78.6699 47.9984 78.1121 48.3753 77.8141 48.0203ZM81.8244 55.8592C81.7664 55.7903 81.7591 55.6829 81.8489 55.6251C82.2114 55.3907 82.1091 56.2029 81.8244 55.8592ZM81.4112 34.0519C81.5296 34.0652 81.6432 34.0736 81.7713 34.0286C81.7577 33.7243 81.6103 33.4742 81.605 33.2036L81.6048 33.1787C81.5466 33.4738 81.482 33.7647 81.4112 34.0519ZM69.4279 30.4633C69.0902 29.9632 69.8919 29.5102 70.1735 29.9726C70.4635 30.4494 69.7652 30.9627 69.4279 30.4633ZM80.84 52.614C80.5486 52.2869 81.1255 52.0544 81.244 52.3729C81.3141 52.5574 81.0382 52.8387 80.84 52.614ZM76.935 44.7423C76.3058 43.8906 77.842 43.1944 78.0855 44.2128C78.1371 44.4338 78.0403 44.7654 77.7666 44.9155C77.4282 45.1007 77.1287 45.0067 76.935 44.7423ZM68.8808 27.1224C68.7707 26.9807 68.8136 26.8583 68.8976 26.7913C69.1921 26.5562 69.5462 27.063 69.1476 27.2119C69.0614 27.2444 68.9672 27.2347 68.8808 27.1224ZM79.92 49.337C79.6177 48.9571 80.1854 48.5606 80.4397 48.8772C80.7186 49.2262 80.2091 49.6995 79.92 49.337ZM71.2996 31.9164C70.8113 31.2611 71.6853 30.5056 72.2566 30.9572C72.5135 31.1616 72.6297 31.6155 72.3733 31.9287C72.0704 32.3035 71.5294 32.2253 71.2996 31.9164ZM79.0572 46.0906C78.8353 45.8177 78.8644 45.4721 79.1889 45.2999C79.8613 44.9417 80.3153 46.0993 79.5258 46.2625C79.3733 46.2938 79.2186 46.2899 79.0572 46.0906ZM83.0186 53.8745C82.8406 53.6904 83.2083 53.499 83.2861 53.7225C83.3368 53.8663 83.139 53.998 83.0186 53.8745ZM68.1551 23.7077C68.6142 23.5793 68.1243 24.1561 68.1551 23.7077ZM70.8495 28.5276C70.6539 28.298 70.707 28.0112 70.9319 27.881C71.4073 27.607 71.8494 28.3744 71.3417 28.6265C71.1216 28.7354 70.9886 28.6922 70.8495 28.5276ZM78.1218 42.7808C77.9174 42.4419 77.9811 41.9744 78.2934 41.7471C78.97 41.2576 79.8399 41.9781 79.5372 42.7049C79.2608 43.365 78.4225 43.2833 78.1218 42.7808ZM82.0663 50.6534C81.9604 50.5366 81.9441 50.384 82.0432 50.2812C82.3307 49.9846 82.7993 50.5603 82.3256 50.7262C82.2608 50.7503 82.1537 50.7488 82.0663 50.6534ZM81.1635 47.3674C80.842 46.9275 81.5525 46.4948 81.8037 46.9488C82.0276 47.3521 81.4436 47.7524 81.1635 47.3674ZM70.157 25.1374C70.0585 24.9797 70.1048 24.8438 70.2552 24.7663C70.5773 24.5983 70.9019 25.1693 70.4309 25.2834C70.3459 25.3046 70.2368 25.2671 70.157 25.1374ZM85.2386 55.0529C85.2826 55.0338 85.2577 55.0101 85.3031 55.0215C85.3464 55.0778 85.2565 55.1223 85.2386 55.0529ZM80.2686 44.1388C80.05 43.801 80.1774 43.295 80.6428 43.1854C80.9634 43.1111 81.5106 43.4092 81.4015 43.9403C81.2973 44.4418 80.591 44.637 80.2686 44.1388ZM84.2383 51.9379C84.1422 51.8532 84.1229 51.7262 84.1988 51.6545C84.3963 51.4661 84.689 51.7511 84.5117 51.9226C84.3911 52.0401 84.3121 52.0036 84.2383 51.9379ZM69.3988 21.9406C69.2628 21.8108 69.3122 21.701 69.3917 21.6423C69.6192 21.4703 69.8963 21.8271 69.6167 21.9743C69.5594 22.004 69.4769 22.0158 69.3988 21.9406ZM79.4214 40.9256C79.2102 40.5895 79.2309 40.09 79.432 39.8505C79.8595 39.3429 80.6996 39.4557 80.961 39.8803C81.2683 40.3775 81.1119 41.2868 80.3091 41.3736C80.0294 41.4038 79.6388 41.2733 79.4214 40.9256ZM83.3102 48.6841C83.1862 48.5251 83.2182 48.3312 83.3927 48.2397C83.741 48.0567 84.0272 48.6015 83.6583 48.7743C83.5604 48.8195 83.4283 48.8364 83.3102 48.6841ZM82.439 45.5044C82.1988 45.21 82.305 44.8211 82.6932 44.7121C83.3232 44.534 83.5261 45.6386 82.8096 45.6833C82.7091 45.6899 82.5559 45.6476 82.439 45.5044ZM81.5357 42.259C81.3516 41.9665 81.3796 41.5883 81.5954 41.3614C82.1402 40.7852 82.9353 41.2692 82.9268 41.8916C82.918 42.6238 81.9295 42.881 81.5357 42.259ZM85.4406 49.928C85.2831 49.6828 85.6892 49.4886 85.8136 49.7028C85.9423 49.9249 85.6176 50.2011 85.4406 49.928ZM84.514 46.7156L84.4885 46.7073C84.2692 46.2323 85.0211 45.9438 85.2098 46.4098C85.3826 46.8386 84.748 47.142 84.514 46.7156ZM83.7069 43.6241C83.1593 42.8925 84.3688 42.2285 84.7264 42.9968C85.0264 43.6398 84.1245 44.182 83.7069 43.6241ZM87.6516 51.2134C87.4445 51.0381 87.7948 50.8403 87.8871 51.0352C87.955 51.1763 87.7789 51.3178 87.6516 51.2134ZM86.692 48.0969C86.3225 47.6852 87.0344 47.2895 87.2344 47.7264C87.3829 48.0507 86.9339 48.3663 86.692 48.0969ZM82.8997 40.4515C82.6742 40.1515 82.6952 39.7678 82.7818 39.5619C82.7688 39.5895 82.878 39.3884 82.9038 39.3601C83.3294 38.8691 84.0908 38.9954 84.3573 39.5261C84.6503 40.1071 84.2552 40.8328 83.5616 40.8096C83.4208 40.8051 83.1085 40.7317 82.8997 40.4515ZM85.7886 44.8927C85.699 44.7661 85.6677 44.6577 85.6769 44.5432C85.7135 44.0335 86.5367 43.8725 86.7112 44.4746C86.7735 44.685 86.6602 44.981 86.3707 45.0876C86.1345 45.1745 85.9442 45.1144 85.7886 44.8927ZM90.01 52.3849C89.8386 52.5764 89.6907 52.3086 89.8559 52.2387C89.9374 52.204 90.0139 52.2717 90.01 52.3849ZM84.9895 41.7364C84.7057 41.3433 84.8255 40.8304 85.2691 40.6285C85.8054 40.3842 86.301 40.7867 86.3179 41.2792C86.3413 42.0298 85.3925 42.2937 84.9895 41.7364ZM88.8058 49.3083C88.5476 48.9658 89.0949 48.6822 89.2769 48.9535C89.4685 49.2415 89.0437 49.623 88.8058 49.3083ZM87.8706 46.1193C87.7608 45.9367 87.786 45.7022 87.9212 45.5689C88.416 45.0863 89.0351 45.905 88.5653 46.2591C88.3078 46.4533 88.0293 46.3888 87.8706 46.1193ZM84.2971 38.5068C83.9715 38.0434 84.0871 37.456 84.5022 37.2148C84.6867 37.1078 84.8864 37.0663 85.0765 37.0798C84.8607 36.591 84.6684 36.0834 84.4999 35.5565C84.2107 35.5637 83.9349 35.4433 83.7657 35.199C83.4846 34.7931 83.5075 34.2664 83.7527 33.9935C83.8397 33.8968 83.9349 33.8228 84.0339 33.7696C83.9156 33.1953 83.8217 32.6015 83.752 31.9885C83.705 31.9806 83.6634 31.9697 83.6299 31.9561C83.5114 31.9089 83.3598 31.7956 83.2429 31.5825C83.0432 31.2198 83.1702 30.6451 83.6299 30.4551C83.6107 30.0523 83.6009 29.6423 83.6009 29.2241C83.6009 28.9287 83.6056 28.637 83.6152 28.3492L83.5857 28.3655C83.2791 28.5215 82.9955 28.4688 82.7777 28.1601C82.5446 27.8359 82.6707 27.213 83.2485 27.1597C83.4186 27.1441 83.5628 27.1952 83.673 27.2854C83.853 24.9265 84.3718 22.8413 85.2275 21.0276C84.8863 21.1671 84.547 21.026 84.353 20.76C84.0223 20.3056 84.2499 19.7681 84.6881 19.6049C85.157 19.4294 85.5633 19.7679 85.6686 20.17C85.8749 19.8009 86.0967 19.4443 86.3337 19.1001C85.9227 19.2346 85.5506 19.0527 85.3294 18.7011C85.0883 18.3156 85.1709 17.8192 85.4877 17.5536C85.7234 17.3542 86.1381 17.2711 86.4337 17.3861C86.8138 17.5336 86.9864 17.8962 86.9681 18.2536C87.1476 18.0329 87.3341 17.8177 87.528 17.6088C88.1145 16.981 88.7523 16.4236 89.4414 15.9362C89.3881 15.8531 89.3356 15.7699 89.3011 15.6806C89.1776 15.3604 89.2529 15.0427 89.1909 14.7675C88.9944 14.736 88.806 14.8976 88.6237 14.968C88.3333 15.0798 88.0295 15.0408 87.7754 15.1266C88.0744 15.6903 88.308 16.1732 88.0857 16.6076C87.8418 17.0846 87.088 17.291 86.6535 17.0151C86.1623 16.704 86.0426 15.9606 86.3337 15.5587C86.6308 15.1492 87.1149 15.1587 87.5972 15.0532C87.5555 14.8416 87.3946 14.6886 87.3084 14.5103C87.1543 14.1919 87.1374 13.7991 87.2624 13.5237C87.4822 13.0431 88.1498 12.948 88.6547 12.8731C88.5766 12.6463 88.4226 12.4983 88.3337 12.307C88.09 11.7841 88.2663 11.1747 88.8643 10.9343C89.3125 10.7525 89.9043 10.8922 90.1476 11.4875C90.2641 11.7715 90.2827 12.2412 90.1368 12.4417C89.832 12.8576 89.2105 12.8304 88.8085 12.9386C88.8966 13.1905 89.0843 13.3687 89.1786 13.6024C89.3035 13.9069 89.2428 14.2162 89.3133 14.4847C89.5137 14.5198 89.7024 14.3486 89.9121 14.2678C90.0962 14.1973 90.3012 14.1944 90.4548 14.0999C90.547 13.8259 90.3074 13.5399 90.263 13.2671C90.22 13.0041 90.2065 12.6619 90.3387 12.4828C90.638 12.073 91.2607 12.0665 91.698 11.9292C91.6131 11.6161 91.4309 11.4906 91.337 11.2006C90.9756 10.0911 92.7491 9.27434 93.2388 10.5993C93.3271 10.8397 93.3673 11.3177 93.237 11.4888C92.9453 11.8694 92.3185 11.8723 91.9648 12.0191C91.9989 12.2802 92.2041 12.4164 92.3189 12.691C92.4118 12.9163 92.373 13.2462 92.5183 13.3799C92.6376 13.4883 92.8933 13.3651 93.0527 13.3162C93.2664 13.2501 93.441 13.2336 93.5951 13.1078C93.5779 12.7691 93.3383 12.4891 93.3152 12.1368C93.3005 11.9104 93.3181 11.6191 93.4057 11.5055C93.531 11.3466 93.8583 11.1998 94.03 11.1358C94.2961 11.0367 94.6317 11.0452 94.8067 11.1142C95.3369 11.3257 95.4255 11.9545 95.5463 12.4825C95.7918 12.543 96.0229 12.3639 96.25 12.3153C96.7901 12.1983 97.3553 12.4637 97.5067 13.1852C97.5234 13.2592 97.5253 13.3384 97.5277 13.4163C97.839 13.403 98.1547 13.3959 98.4757 13.3959C99.2393 13.3959 99.9752 13.433 100.683 13.5063C100.639 13.1542 100.818 12.8005 101.197 12.6469C101.943 12.3423 102.534 13.1474 102.305 13.7483C102.627 13.8118 102.942 13.8839 103.25 13.9646C103.558 13.8077 103.965 13.8451 104.167 14.2367C106.251 14.9298 108.006 16.052 109.433 17.6034C109.54 17.499 109.743 17.4766 109.833 17.6467C109.88 17.7352 109.834 17.8778 109.747 17.9565C112.148 20.7602 113.349 24.5133 113.349 29.2242C113.349 29.6837 113.338 30.1338 113.315 30.575C113.533 30.5133 113.783 30.5731 113.906 30.8226C114.131 31.2738 113.63 31.6874 113.246 31.5311C112.891 35.3528 111.623 38.4438 109.447 40.8035C108.961 41.3296 108.437 41.8062 107.878 42.2343C107.925 42.577 107.528 42.8635 107.228 42.698C105.443 43.8864 103.321 44.6222 100.859 44.9037C100.744 44.9728 100.605 44.9965 100.478 44.9434C99.8328 45.0042 99.1656 45.0348 98.4757 45.0348C98.1014 45.0348 97.7343 45.0256 97.3735 45.0077C97.5568 45.0659 97.6983 45.2341 97.729 45.4467C97.807 45.989 97.0871 46.1636 96.8221 45.7763C96.6397 45.5084 96.6996 45.199 96.9859 45.0487C97.0366 45.0222 97.0877 45.0043 97.1376 44.9946C96.551 44.9589 95.9821 44.8994 95.4313 44.8158C95.2506 44.9335 95.0142 44.9679 94.8358 44.8647C94.7768 44.8298 94.7311 44.7772 94.6754 44.7021L94.6606 44.681C91.7428 44.1011 89.3577 42.8077 87.5035 40.8035C87.3107 40.5946 87.1257 40.3796 86.9474 40.1592C86.6963 40.153 86.4783 40.0142 86.3226 39.7837C86.1735 39.5639 86.1494 39.3421 86.2052 39.1479C86.0585 38.9269 85.9178 38.7014 85.7836 38.4705C85.6914 38.6104 85.5633 38.7295 85.413 38.8015C84.9684 39.0138 84.5398 38.8565 84.2971 38.5068ZM72.0969 12.4495C72.2301 12.5931 72.2095 12.7121 72.1365 12.7725C71.7918 13.0578 71.6641 12.2908 72.0969 12.4495ZM87.023 42.947C86.8251 42.6007 86.982 42.0283 87.5528 41.9784C87.7254 41.9635 88.0529 42.0951 88.1732 42.3364C88.5401 43.0675 87.4418 43.6796 87.023 42.947ZM90.9692 50.4963C90.8856 50.376 90.8999 50.1508 91.1412 50.1083C91.373 50.0666 91.5265 50.4587 91.2762 50.5855C91.1829 50.6325 91.0688 50.638 90.9692 50.4963ZM90.0251 47.412C89.6727 46.9444 90.3508 46.5536 90.6584 46.8567C91.0133 47.2084 90.4142 47.9275 90.0251 47.412ZM89.1466 44.2549C88.7176 43.6436 89.6443 42.9684 90.0787 43.5307C90.5926 44.1995 89.586 44.8861 89.1466 44.2549ZM93.1898 51.6757C92.9549 51.4081 93.4146 51.2378 93.5136 51.474C93.5745 51.6191 93.3572 51.867 93.1898 51.6757ZM72.9033 10.5355C72.9508 10.4797 73.061 10.4272 73.1221 10.4468C73.2022 10.4775 73.2641 10.6289 73.2265 10.6976C73.086 10.8979 72.8346 10.7197 72.9033 10.5355ZM92.1644 48.5915C91.8237 48.1116 92.6104 47.7739 92.8204 48.2057C93.0326 48.6379 92.4165 48.9481 92.1644 48.5915ZM91.284 45.5155C90.7765 44.8815 91.8126 44.2698 92.1679 44.8959C92.485 45.4549 91.6872 46.0189 91.284 45.5155ZM75.0581 11.9896C74.947 11.8229 74.988 11.6842 75.0833 11.5929C75.4623 11.2348 75.9581 12.0131 75.357 12.1441C75.2684 12.163 75.1433 12.1146 75.0581 11.9896ZM95.4021 52.7978C95.239 52.6162 95.5531 52.4481 95.6526 52.6135C95.7508 52.7761 95.5476 52.9625 95.4021 52.7978ZM94.3681 49.7786C94.1831 49.5665 94.2534 49.3814 94.386 49.2863C94.8183 48.9679 95.2685 49.7401 94.6665 49.8928C94.5992 49.9102 94.4609 49.8851 94.3681 49.7786ZM82.076 24.7551C81.7014 24.2541 82.2622 23.629 82.775 23.8429C83.4308 24.1182 83.0812 25.1994 82.3664 24.9743C82.2767 24.9457 82.1639 24.8732 82.076 24.7551ZM93.3754 46.6386C93.2279 46.4083 93.2895 46.1565 93.417 46.0321C93.9646 45.497 94.6668 46.4574 94.0461 46.8098C93.7635 46.9706 93.5298 46.8801 93.3754 46.6386ZM77.1234 13.3061C76.9581 13.0435 77.0659 12.7471 77.3119 12.6272C77.8162 12.3815 78.3396 13.2119 77.7454 13.5015C77.4805 13.6309 77.2697 13.5376 77.1234 13.3061ZM81.1972 21.3969C81.0078 21.1319 81.0374 20.7946 81.2081 20.6034C81.8938 19.8416 82.889 21.1822 81.9658 21.6006C81.6495 21.7437 81.3984 21.6765 81.1972 21.3969ZM97.6782 53.7679C97.7265 53.7346 97.7578 53.7459 97.7745 53.8008L97.7186 53.8483L97.6782 53.7679ZM76.1483 9.99585C75.9568 9.78705 76.045 9.55341 76.3034 9.49428C76.5845 9.4315 76.8421 9.91279 76.4477 10.069C76.3628 10.1033 76.244 10.1013 76.1483 9.99585ZM80.1643 18.0136C79.7543 17.3364 80.6903 16.6299 81.2268 17.1436C81.5862 17.4882 81.4783 18.0827 81.0694 18.291C80.7255 18.4675 80.3861 18.3764 80.1643 18.0136ZM96.5635 50.8286C96.3333 50.5007 96.8732 50.2682 97.0178 50.563C97.1494 50.8337 96.7619 51.1099 96.5635 50.8286ZM95.8317 47.1147C96.2419 47.0244 96.4832 47.641 96.185 47.8686C95.6683 48.2613 95.1098 47.3567 95.8317 47.1147ZM79.2049 14.6952C78.9737 14.3708 79.089 13.9279 79.427 13.7583C79.8145 13.5635 80.3142 13.8201 80.3555 14.2868C80.4105 14.9186 79.5524 15.1779 79.2049 14.6952ZM83.2791 22.7456C83.0086 22.3757 83.157 21.8341 83.6712 21.7443C84.2814 21.6368 84.6841 22.5856 84.0704 22.9178C83.7523 23.0902 83.4453 22.974 83.2791 22.7456ZM78.2049 11.2955C77.7841 10.7223 78.7105 10.2898 78.9832 10.7889C79.2499 11.276 78.5455 11.7583 78.2049 11.2955ZM82.2467 19.4023C81.7671 18.6901 82.7149 17.8877 83.3338 18.3789C83.7163 18.6832 83.7373 19.3768 83.2153 19.6484C82.8232 19.8522 82.4534 19.7096 82.2467 19.4023ZM98.8247 51.8872C98.7382 51.7848 98.7309 51.6533 98.898 51.5881C99.3187 51.4243 99.1165 52.2321 98.8247 51.8872ZM81.2307 16.0518C80.8401 15.4745 81.3833 14.5624 82.1635 14.883C82.6494 15.0809 82.8234 15.7688 82.4354 16.1612C82.0435 16.5574 81.4856 16.426 81.2307 16.0518ZM77.2057 7.89685C76.9391 7.64644 77.3885 7.37916 77.5209 7.63968C77.6212 7.83415 77.3832 8.06372 77.2057 7.89685ZM97.7903 48.8683C97.661 48.7029 97.6973 48.5183 97.7761 48.4312C98.1707 48.0014 98.7324 48.7663 98.1709 48.982C98.0438 49.031 97.9045 49.0139 97.7903 48.8683ZM80.2304 12.6121C80.0345 12.3063 80.105 11.8683 80.4762 11.684C81.1424 11.3537 81.7892 12.338 81.1837 12.7857C80.8727 13.0153 80.4699 12.9848 80.2304 12.6121ZM83.2791 17.4169C83.0556 17.092 83.0901 16.6653 83.2667 16.4144C83.5077 16.0745 84.0331 15.9475 84.3674 16.1107C85.029 16.432 84.9876 17.397 84.3705 17.7033C83.9978 17.8882 83.5578 17.8173 83.2791 17.4169ZM79.2703 9.21334C78.9393 8.79215 79.5353 8.3528 79.8393 8.64915C80.0272 8.83214 80.0994 9.21766 79.6837 9.35219C79.5552 9.39356 79.3931 9.36725 79.2703 9.21334ZM100.003 49.8692C99.8181 49.5873 100.24 49.3092 100.425 49.5387C100.646 49.8139 100.223 50.2065 100.003 49.8692ZM78.1188 5.66764C78.1481 5.5156 78.3455 5.47129 78.4176 5.58042C78.5342 5.75518 78.2197 5.99925 78.1188 5.66764ZM82.3115 14.0424C81.9643 13.5772 82.1071 12.9863 82.6547 12.7814C83.4577 12.4818 84.039 13.5086 83.5568 14.0706C83.2248 14.4577 82.6301 14.4673 82.3115 14.0424ZM93.1601 34.041C93.5549 34.0703 93.7283 34.6363 93.4425 34.8908C93.6631 35.4577 93.9274 35.948 94.2349 36.3637C94.7549 37.0524 95.3654 37.5511 96.0915 37.8677C96.8085 38.185 97.6254 38.3482 98.5495 38.3482C98.6057 38.3482 98.6618 38.3472 98.7176 38.3457C98.3174 37.714 99.5313 37.3292 99.5879 38.0871C99.5927 38.1508 99.5822 38.2108 99.5592 38.266C99.9888 38.1949 100.407 38.0774 100.818 37.9133C101.254 37.737 101.652 37.4867 102.007 37.1633C101.954 36.9035 102.113 36.6074 102.463 36.6009C102.483 36.6005 102.504 36.6012 102.523 36.6034C102.564 36.5518 102.603 36.4996 102.641 36.4456C102.925 36.0669 103.171 35.6525 103.383 35.2C103.362 35.1772 103.343 35.1518 103.325 35.1232C103.111 34.7784 103.394 34.4661 103.695 34.4336C103.778 34.2008 103.852 33.9598 103.92 33.7093C104.18 32.7164 104.32 31.3719 104.339 29.6763C104.319 29.6886 104.296 29.6998 104.272 29.7092C103.867 29.8649 103.498 29.1719 104.096 28.989C104.192 28.9805 104.275 29.005 104.34 29.0502C104.328 27.4102 104.179 26.0197 103.903 24.8934C103.615 23.7159 103.211 22.7737 102.691 22.0668C102.179 21.3418 101.552 20.8346 100.827 20.5356C100.302 20.3195 99.7476 20.1796 99.1629 20.1183C99.1691 20.1471 99.1737 20.1769 99.1768 20.208C99.234 20.8241 98.3433 21.3157 97.8888 20.7052C97.7523 20.5225 97.7015 20.3112 97.7351 20.1177C97.1904 20.1708 96.6906 20.2837 96.2311 20.4542C96.064 20.5169 95.8989 20.5959 95.7352 20.691C95.909 20.8073 96.0353 21.0002 96.0434 21.2574C96.0658 21.9502 95.1374 22.1935 94.7647 21.6499C94.7394 21.6131 94.7181 21.575 94.7003 21.5357C94.5853 21.6585 94.4713 21.79 94.3585 21.931C93.8223 22.6196 93.3933 23.5618 93.0802 24.7576C93.0376 24.9214 92.998 25.0904 92.9612 25.2652C93.0662 25.2419 93.1772 25.2669 93.2574 25.3641C93.4068 25.5452 93.4302 25.8894 93.0454 25.9533C92.9855 25.9641 92.9135 25.9602 92.8415 25.9169C92.687 26.8881 92.6094 28.0077 92.6094 29.2788C92.6094 29.833 92.6262 30.3611 92.6587 30.8649C92.8147 30.9916 92.8547 31.269 92.7015 31.4192C92.7704 32.1726 92.8777 32.8662 93.0219 33.5007C93.0646 33.6868 93.111 33.8664 93.1601 34.041ZM99.011 46.8497C98.65 46.3424 99.4717 45.9489 99.7151 46.4C99.9564 46.8466 99.3153 47.2813 99.011 46.8497ZM81.3287 10.5543C80.8797 9.95101 81.7103 9.32118 82.18 9.74799C82.6903 10.2101 82.1252 10.9249 81.6202 10.7725C81.5224 10.7453 81.4135 10.6666 81.3287 10.5543ZM84.3132 15.3899C83.9811 14.9155 84.1152 14.2698 84.6334 14.0007C84.89 13.8676 85.2941 13.8351 85.5631 14.0042C86.0726 14.3258 86.1241 15.0943 85.8015 15.4595C85.3684 15.95 84.6397 15.8573 84.3132 15.3899ZM80.2635 7.06536C79.9801 6.65777 80.6395 6.36036 80.8315 6.70362C81.0211 7.04133 80.5177 7.42702 80.2635 7.06536ZM94.7104 36.0259C94.5726 35.8201 94.5946 35.5472 94.7854 35.4041C95.475 34.885 95.8912 36.1522 95.1226 36.2456C94.9941 36.2614 94.8512 36.2342 94.7104 36.0259ZM102.248 50.8547C102.101 50.6197 102.517 50.4406 102.613 50.6939C102.689 50.8967 102.395 51.0876 102.248 50.8547ZM83.3447 11.9351C83.0363 11.5249 83.1717 10.9897 83.5756 10.7711C83.9631 10.5617 84.3991 10.7137 84.5779 10.9597C84.8679 11.361 84.7475 11.9153 84.3558 12.1395C83.9917 12.3497 83.5772 12.2419 83.3447 11.9351ZM101.215 47.8352C100.975 47.4549 101.599 47.1276 101.798 47.5061C101.976 47.8471 101.474 48.2489 101.215 47.8352ZM94.1872 32.6531C94.0207 32.4608 94.0552 32.1547 94.3666 32.0792C94.6963 31.9987 95.0002 32.5634 94.5351 32.7423C94.4291 32.7833 94.2969 32.7773 94.1872 32.6531ZM92.298 14.4242C92.2744 14.278 92.2439 14.1376 92.1523 14.0246C91.8482 14.0409 91.4401 14.1731 91.1326 14.3287C91.086 14.5099 91.2116 14.6511 91.2932 14.8527C91.619 14.6975 91.9538 14.5545 92.298 14.4242ZM95.4223 13.6177C95.3749 13.4129 95.3886 13.1934 95.2847 13.017C94.9737 13.0137 94.5291 13.2127 94.2186 13.3434C94.1796 13.5061 94.2875 13.6533 94.3705 13.8125C94.7135 13.7373 95.0642 13.6725 95.4223 13.6177ZM82.3144 8.34994C82.146 8.05921 82.2602 7.67491 82.6643 7.5916C83.1989 7.47922 83.5462 8.26394 83.001 8.55418C82.7155 8.70565 82.468 8.61453 82.3144 8.34994ZM96.7193 37.2292C96.5136 36.935 96.6279 36.6604 96.9005 36.5342C97.4402 36.2849 97.8513 37.1119 97.3015 37.3843C97.057 37.5064 96.8647 37.4343 96.7193 37.2292ZM85.3312 13.2511C85.0027 12.7271 85.1859 12.0995 85.7314 11.8621C86.6208 11.4741 87.4088 12.5802 86.8989 13.2797C86.467 13.8729 85.6507 13.7622 85.3312 13.2511ZM81.2896 4.94186C81.1286 4.77084 81.1962 4.63419 81.3239 4.56163C81.5938 4.41008 81.882 4.83004 81.5572 4.99121C81.4634 5.03746 81.3834 5.04064 81.2896 4.94186ZM104.607 51.7837L104.59 51.7515C104.635 51.731 104.609 51.7083 104.655 51.7192L104.671 51.7514C104.652 51.7947 104.649 51.7608 104.607 51.7837ZM93.5441 29.1573C93.4983 29.0888 93.4894 28.9748 93.5121 28.9313C93.7304 28.5202 94.2101 29.0618 93.8506 29.2468C93.7278 29.3105 93.6469 29.313 93.5441 29.1573ZM103.475 48.8123C103.295 48.5434 103.723 48.3046 103.872 48.5547C104.009 48.7836 103.671 49.1046 103.475 48.8123ZM96.1483 33.8392C95.8848 33.4726 96.4465 33.1238 96.6681 33.4201C96.9195 33.7585 96.4305 34.2284 96.1483 33.8392ZM84.3638 9.71498C84.1477 9.37864 84.2625 8.92097 84.5849 8.73693C84.9457 8.53105 85.5044 8.66241 85.6259 9.20861C85.7767 9.88046 84.7911 10.377 84.3638 9.71498ZM102.466 45.8014C102.11 45.3146 102.9 44.9862 103.115 45.3996C103.302 45.7644 102.771 46.2182 102.466 45.8014ZM83.3963 6.25914C82.9256 5.74503 83.9091 5.25332 84.0845 5.89756C84.1681 6.20197 83.6854 6.61298 83.3963 6.25914ZM95.5603 30.4171C95.3385 30.1562 95.7775 29.9567 95.9018 30.1676C96.0173 30.3619 95.7429 30.6301 95.5603 30.4171ZM98.134 35.0337C97.9881 34.8359 98.0486 34.6668 98.1522 34.5814C98.607 34.2057 99.0891 35.0335 98.4495 35.1802C98.3654 35.2 98.2323 35.1671 98.134 35.0337ZM86.3324 10.9984C86.1461 10.6512 86.1949 10.1605 86.5549 9.89893C86.9663 9.59851 87.6115 9.68777 87.8714 10.194C88.3745 11.179 86.8777 12.0116 86.3324 10.9984ZM82.2596 2.74684C82.2222 2.76191 82.2184 2.68088 82.1952 2.65669C82.3131 2.29747 82.6059 2.86321 82.2596 2.74684ZM105.752 49.782C105.527 49.5661 105.933 49.4036 106.02 49.5893C106.06 49.6772 105.931 49.9535 105.752 49.782ZM94.78 27.0507C94.5534 26.7631 95.0061 26.4503 95.193 26.7045C95.4001 26.9842 95.008 27.3437 94.78 27.0507ZM104.67 46.7877C104.522 46.5995 104.578 46.4336 104.671 46.3426C105.044 45.9844 105.56 46.6661 105.067 46.8931C104.907 46.9666 104.78 46.9262 104.67 46.7877ZM85.454 7.55912C85.231 7.27449 85.261 6.91666 85.587 6.72602C86.2559 6.33545 86.7693 7.40089 86.1171 7.71466C85.8587 7.83886 85.6451 7.80343 85.454 7.55912ZM97.5468 31.6528C97.4661 31.5682 97.4573 31.4757 97.4749 31.4256C97.6246 30.9833 98.1978 31.5527 97.7566 31.7099C97.7182 31.7229 97.6512 31.7636 97.5468 31.6528ZM94.0967 22.9493C94.6342 22.8476 94.9225 23.6364 94.4252 23.8965C93.8565 24.1935 93.2803 23.2349 94.0967 22.9493ZM100.119 36.2291C99.9291 35.9877 100.005 35.6662 100.34 35.5741C100.771 35.4574 101.052 36.1689 100.547 36.3592C100.414 36.4099 100.255 36.4014 100.119 36.2291ZM84.3574 4.00588C84.2534 3.87053 84.2632 3.7088 84.4081 3.61751C84.7637 3.39364 85.0261 3.96516 84.6485 4.10368C84.566 4.13365 84.4602 4.14147 84.3574 4.00588ZM96.8207 28.279C96.5429 28.0089 97.0495 27.7286 97.1692 28.045C97.2451 28.2422 96.9823 28.4336 96.8207 28.279ZM87.4628 8.84306C87.2666 8.55909 87.2956 8.17943 87.5068 7.9536C87.8831 7.55261 88.5877 7.69113 88.7507 8.26461C88.8235 8.51894 88.7 8.86406 88.497 9.01562C88.1297 9.29071 87.7049 9.19063 87.4628 8.84306ZM99.4831 32.831C99.355 32.6658 99.4095 32.5203 99.5335 32.4433C99.8442 32.2467 100.174 32.7516 99.7905 32.9209C99.6864 32.9671 99.5762 32.9499 99.4831 32.831ZM106.947 47.7159C106.782 47.5442 106.847 47.3984 106.998 47.3289C107.26 47.2061 107.494 47.6018 107.23 47.7575C107.121 47.8224 107.034 47.8069 106.947 47.7159ZM95.8864 24.9682C95.5144 24.5275 96.1967 24.075 96.478 24.4121C96.7939 24.7905 96.2444 25.3963 95.8864 24.9682ZM105.898 44.7051L105.873 44.6974C105.53 44.2072 106.308 43.8506 106.531 44.2695C106.723 44.6316 106.211 45.088 105.898 44.7051ZM86.4159 5.26573C86.2727 5.03983 86.3328 4.70431 86.7008 4.6197C86.9216 4.56872 87.14 4.76107 87.1918 4.96124C87.3135 5.41712 86.6532 5.64311 86.4159 5.26573ZM98.8241 29.4656C98.552 29.2234 99 28.9891 99.123 29.2156C99.2153 29.3866 98.9864 29.6094 98.8241 29.4656ZM89.4327 10.0862C89.2094 9.67674 89.3359 9.13885 89.7755 8.90659C90.202 8.68174 90.7471 8.82914 90.9714 9.28209C91.1912 9.72381 91.0579 10.2803 90.4663 10.501C90.0792 10.647 89.6768 10.5355 89.4327 10.0862ZM85.3273 1.76918C85.26 1.71437 85.2554 1.62838 85.3348 1.58351C85.5778 1.44775 85.5374 1.94036 85.3273 1.76918ZM101.404 34.0174C101.267 33.8312 101.297 33.6186 101.47 33.5003C101.947 33.1744 102.292 33.9158 101.865 34.1328C101.707 34.2118 101.543 34.205 101.404 34.0174ZM97.9281 26.115C97.7972 25.9449 97.8299 25.7514 98.0012 25.6544C98.4661 25.3923 98.6604 26.176 98.1953 26.2442C98.129 26.255 98.0181 26.2319 97.9281 26.115ZM109.177 48.4271C109.214 48.383 109.282 48.349 109.339 48.3463C109.404 48.3942 109.426 48.4866 109.396 48.5407C109.278 48.6353 109.181 48.5455 109.177 48.4271ZM88.4814 6.54222C88.0788 5.87273 89.1689 5.35064 89.4696 6.05189C89.6584 6.49262 89.1475 6.98141 88.7231 6.78514C88.6332 6.74296 88.5568 6.66665 88.4814 6.54222ZM108.095 45.5929C107.836 45.2433 108.375 44.9051 108.589 45.2073C108.801 45.5052 108.361 45.9542 108.095 45.5929ZM100.752 30.6269C100.497 30.305 101.112 30.0466 101.189 30.451C101.239 30.7068 100.891 30.8029 100.752 30.6269ZM96.8474 22.7558C96.7091 22.505 96.7304 22.0812 97.213 21.9482C97.777 21.7929 98.1099 22.6389 97.6871 22.9451C97.3966 23.1555 97.0381 23.1037 96.8474 22.7558ZM87.433 3.04474C87.177 2.74302 87.6406 2.47428 87.8136 2.67469C88.0359 2.92992 87.6671 3.32016 87.433 3.04474ZM100.003 27.2859C99.8986 27.1819 99.8767 27.0218 99.9706 26.9376C100.26 26.6803 100.634 27.209 100.212 27.3429C100.167 27.3576 100.098 27.3797 100.003 27.2859ZM90.5629 7.93123C90.2997 7.59099 90.3669 7.1303 90.6474 6.92028C91.1367 6.55462 91.7612 6.8377 91.8264 7.4251C91.8918 8.03197 91.0133 8.51309 90.5629 7.93123ZM102.647 31.8065C102.438 31.5149 102.76 31.069 103.104 31.2571C103.621 31.5418 102.992 32.2822 102.647 31.8065ZM98.9938 23.9918C98.5553 23.4529 99.4567 22.9771 99.7309 23.485C99.9685 23.9238 99.3363 24.4129 98.9938 23.9918ZM110.364 46.4251C110.292 46.3275 110.284 46.2063 110.422 46.134C110.876 45.8939 110.68 46.859 110.364 46.4251ZM89.5471 4.33832C89.4458 4.22285 89.4129 4.02104 89.4351 3.9493C89.6472 3.29838 90.4721 3.93146 90.1218 4.3156C89.9361 4.51838 89.6814 4.488 89.5471 4.33832ZM109.29 43.4869C108.866 42.9746 109.815 42.5519 109.961 43.1734C110.051 43.5536 109.514 43.7571 109.29 43.4869ZM101.939 28.424C101.841 28.2982 101.865 28.1705 101.891 28.1248C102.123 27.7326 102.703 28.2682 102.279 28.4975C102.13 28.5785 102.03 28.5407 101.939 28.424ZM92.5639 9.19876C92.3105 8.84989 92.353 8.46046 92.5513 8.19644C92.9633 7.64642 93.7358 7.83136 93.9824 8.31363C94.1478 8.63587 94.0581 9.02343 93.8902 9.22645C93.504 9.6961 92.856 9.59935 92.5639 9.19876ZM88.3949 0.71177C88.3556 0.661035 88.4225 0.625772 88.4609 0.638884C88.4983 0.689293 88.4321 0.725614 88.3949 0.71177ZM101.085 25.1136C100.857 24.864 100.966 24.5884 101.273 24.5158C101.609 24.4368 101.899 25.0087 101.448 25.1956C101.33 25.2449 101.198 25.2388 101.085 25.1136ZM91.5727 5.57295C91.2651 5.1656 91.6427 4.5988 92.1416 4.76648C92.597 4.91975 92.6219 5.56 92.1633 5.74494C91.913 5.84568 91.7358 5.78843 91.5727 5.57295ZM100.004 21.796C99.5732 21.23 100.413 20.5612 100.855 21.0305C101.147 21.3404 101.084 21.9956 100.463 22.0309C100.371 22.0363 100.153 21.9921 100.004 21.796ZM112.698 47.226L112.665 47.1608L112.731 47.1275C112.764 47.1751 112.753 47.2076 112.698 47.226ZM94.5981 10.4507C94.3357 10.0626 94.3508 9.61856 94.6011 9.31814C95.0151 8.82349 95.8056 8.86926 96.1286 9.42881C96.345 9.8 96.2658 10.2661 96.0859 10.4797C95.624 11.0262 94.9239 10.9347 94.5981 10.4507ZM90.4854 1.99522C90.3434 1.84415 90.4108 1.7176 90.5179 1.65612C90.7624 1.51702 90.9665 1.86394 90.7757 2.01281C90.6482 2.11289 90.5655 2.08236 90.4854 1.99522ZM111.527 44.3348C111.17 43.9418 111.856 43.652 112.005 44.0366C112.082 44.2388 111.773 44.6055 111.527 44.3348ZM110.437 41.3235C110.266 41.0975 110.298 40.8569 110.455 40.7084C110.706 40.472 111.032 40.5776 111.157 40.7441C111.526 41.2314 110.81 41.8185 110.437 41.3235ZM103.078 26.2033C102.821 25.8887 103.277 25.5247 103.517 25.7441C103.829 26.0313 103.378 26.5727 103.078 26.2033ZM93.6399 6.84936C93.5823 6.77672 93.4881 6.5956 93.479 6.48469C93.4385 5.99965 94.1186 5.58848 94.5309 5.96309C95.1993 6.56954 94.1848 7.54426 93.6399 6.84936ZM102.111 22.8696C101.918 22.615 101.987 22.2682 102.347 22.1671C102.788 22.0435 103.055 22.6966 102.748 22.9366C102.536 23.1041 102.271 23.0837 102.111 22.8696ZM96.648 11.6935C96.3928 11.316 96.3984 10.8798 96.5134 10.6512C96.8756 9.92503 97.9469 10.0049 98.2758 10.6645C98.5138 11.1403 98.3888 11.7181 97.8358 11.9726C97.3352 12.2028 96.9352 12.1209 96.648 11.6935ZM92.5497 3.23174C92.2079 2.79328 93.0099 2.44131 93.1425 2.95787C93.2263 3.28972 92.7562 3.49356 92.5497 3.23174ZM113.749 44.9074C113.789 44.8601 113.881 44.8139 113.943 44.8117C114.332 45.0092 113.671 45.3484 113.749 44.9074ZM95.6239 8.04401C95.3716 7.66395 95.4905 7.13249 95.9671 6.94503C96.8321 6.60617 97.3575 7.90574 96.5614 8.30608C96.2267 8.4753 95.858 8.39525 95.6239 8.04401ZM112.674 42.1711C112.461 41.9275 112.555 41.6705 112.821 41.5736C113.262 41.4133 113.564 42.211 112.981 42.3014C112.917 42.3124 112.765 42.2768 112.674 42.1711ZM111.536 39.0629C111.135 38.3667 112.393 37.8835 112.54 38.7268C112.641 39.3111 111.839 39.5918 111.536 39.0629ZM98.722 12.8248C98.3289 12.2635 98.5198 11.6565 99.091 11.4106C99.5668 11.2054 100.108 11.4293 100.319 11.851C100.576 12.3685 100.331 12.8982 99.8777 13.1191C99.4463 13.3301 99.0177 13.2453 98.722 12.8248ZM94.6012 4.43483C94.2467 3.91844 95.0585 3.46891 95.3381 3.96779C95.5924 4.42155 94.9177 4.89828 94.6012 4.43483ZM93.4726 0.856989C93.2786 0.635481 93.662 0.516421 93.7397 0.703807C93.788 0.824903 93.6125 1.01864 93.4726 0.856989ZM97.642 9.2234C97.4119 8.85165 97.5134 8.34544 97.9205 8.11554C98.4266 7.83165 98.865 8.12841 99.0269 8.43502C99.5214 9.36038 98.1627 10.0675 97.642 9.2234ZM114.919 42.9148C114.658 42.5996 115.171 42.3845 115.307 42.6411C115.417 42.8457 115.119 43.1543 114.919 42.9148ZM96.6835 5.7026C96.12 5.01585 97.3764 4.38105 97.6048 5.24501C97.7403 5.7487 97.0263 6.12241 96.6835 5.7026ZM113.821 39.9674C113.339 39.451 114.366 38.8857 114.549 39.606C114.65 39.9711 114.057 40.3057 113.821 39.9674ZM112.747 36.8671C112.294 36.2256 113.366 35.5936 113.704 36.3126C113.976 36.894 113.146 37.4337 112.747 36.8671ZM95.5865 2.0692C95.2969 1.74916 95.9225 1.47789 95.9991 1.88451C96.0359 2.08223 95.7315 2.22947 95.5865 2.0692ZM99.7642 10.4513C99.439 10.0155 99.6086 9.47508 100.002 9.2627C100.849 8.80804 101.643 10.0006 100.903 10.592C100.523 10.8962 100.018 10.7912 99.7642 10.4513ZM98.7174 6.87335C98.1879 6.1576 99.3492 5.48705 99.7299 6.22951C99.851 6.4682 99.8386 6.82497 99.5168 7.02164C99.1865 7.22295 98.9037 7.12661 98.7174 6.87335ZM116.074 40.7275C115.854 40.4783 116.015 40.2572 116.221 40.2105C116.518 40.1422 116.665 40.5713 116.477 40.7283C116.332 40.8516 116.178 40.8243 116.074 40.7275ZM97.6447 3.28824C97.2771 2.86787 97.9867 2.48137 98.1961 2.89393C98.3706 3.24044 97.8978 3.57791 97.6447 3.28824ZM101.839 11.5007C101.193 10.5121 103.054 9.80417 103.19 11.0523C103.269 11.7659 102.254 12.1359 101.839 11.5007ZM114.967 37.6836C114.775 37.4384 114.858 37.1416 115.083 37.0206C115.593 36.747 116.075 37.5478 115.477 37.814C115.29 37.8981 115.104 37.8556 114.967 37.6836ZM113.967 34.6069C113.737 34.3245 113.772 33.9437 114.139 33.7751C114.801 33.4731 115.247 34.5871 114.485 34.7948C114.308 34.8435 114.134 34.8123 113.967 34.6069ZM100.775 8.01178C100.537 7.68538 100.652 7.24725 100.981 7.08307C101.637 6.75203 102.155 7.60313 101.745 8.056C101.441 8.39038 100.994 8.31204 100.775 8.01178ZM99.7025 4.46741C99.6341 4.38541 99.5836 4.29078 99.5738 4.20771C99.5346 3.87374 100.044 3.61811 100.286 3.85468C100.735 4.2907 100.051 4.87818 99.7025 4.46741ZM104.027 12.6152C103.525 11.9849 104.391 11.2719 104.903 11.7367C105.574 12.3469 104.546 13.2685 104.027 12.6152ZM118.304 41.2354C118.393 41.1077 118.558 41.1836 118.554 41.3329C118.486 41.4879 118.261 41.3999 118.304 41.2354ZM98.5255 0.832619C98.3483 0.626747 98.7231 0.447912 98.8087 0.67227C98.8687 0.82643 98.6555 0.984091 98.5255 0.832619ZM117.214 38.4261C116.935 38.0998 117.434 37.7769 117.636 38.0157C117.865 38.2864 117.488 38.7457 117.214 38.4261ZM102.865 9.0941C102.318 8.33308 103.688 7.72132 103.926 8.62853C104.044 9.07887 103.506 9.4749 103.116 9.31292C103.018 9.27294 102.935 9.19044 102.865 9.0941ZM116.164 35.3742C115.89 35.0418 116.227 34.6005 116.586 34.7215C117.225 34.9354 116.597 35.898 116.164 35.3742ZM101.721 5.52489C101.581 5.30004 101.643 5.00313 101.925 4.87869C102.407 4.66712 102.823 5.40387 102.327 5.68825C102.074 5.83378 101.859 5.74819 101.721 5.52489ZM115.147 32.186C114.768 31.6293 115.715 31.2101 115.926 31.7994C116.078 32.2354 115.447 32.6256 115.147 32.186ZM106.142 13.544C105.995 13.3164 106.065 13.0908 106.168 12.9854C106.692 12.4465 107.373 13.3753 106.749 13.707C106.488 13.8455 106.288 13.7667 106.142 13.544ZM100.576 1.95535C100.394 1.66519 100.879 1.46543 101.006 1.72122C101.126 1.9639 100.758 2.24461 100.576 1.95535ZM114.277 28.9651C114.081 28.73 114.148 28.4486 114.432 28.3428C114.856 28.1836 115.15 28.8383 114.744 29.0553C114.59 29.1378 114.419 29.136 114.277 28.9651ZM105.013 10.169C104.554 9.5991 105.474 9.03239 105.807 9.57271C105.958 9.81735 105.951 10.1735 105.554 10.3235C105.378 10.3905 105.16 10.3512 105.013 10.169ZM103.836 6.61485C103.504 6.11223 104.304 5.72744 104.549 6.18112C104.781 6.61192 104.144 7.08198 103.836 6.61485ZM113.382 25.6145C113.102 25.2371 113.69 24.9768 113.867 25.2935C114.013 25.5523 113.625 25.9427 113.382 25.6145ZM108.314 14.5456C108.021 14.1695 108.612 13.8697 108.81 14.1581C109.02 14.4686 108.571 14.8742 108.314 14.5456ZM102.676 3.09405C102.434 2.79144 102.892 2.50445 103.079 2.73109C103.307 3.00439 102.902 3.38047 102.676 3.09405ZM112.527 22.224C112.449 22.1425 112.449 22.0506 112.552 21.9888C112.917 21.7733 112.793 22.497 112.527 22.224ZM107.129 11.0968C107.004 10.8959 107.075 10.7056 107.211 10.6126C107.634 10.3197 108.002 10.9258 107.695 11.1798C107.462 11.3712 107.249 11.2909 107.129 11.0968ZM105.975 7.67333C105.82 7.47511 105.881 7.29041 106.001 7.19701C106.417 6.86597 106.898 7.57658 106.355 7.78718C106.227 7.8371 106.088 7.81951 105.975 7.67333ZM111.737 18.8409C111.594 18.9764 111.46 18.7969 111.519 18.6871C111.662 18.5517 111.797 18.7316 111.737 18.8409ZM104.799 4.15974C104.712 4.05949 104.709 3.99817 104.725 3.93351C104.754 3.82145 105.014 3.65418 105.155 3.82169C105.338 4.04125 105.029 4.43068 104.799 4.15974ZM110.479 15.4895C110.382 15.4045 110.385 15.2944 110.471 15.231C110.827 14.9698 110.784 15.7627 110.479 15.4895ZM109.317 12.0899C108.989 11.7275 109.758 11.5824 109.689 11.9861C109.667 12.1181 109.438 12.2256 109.317 12.0899ZM108.122 8.66643C107.824 8.32953 108.406 8.1002 108.529 8.42473C108.588 8.58906 108.339 8.90716 108.122 8.66643ZM106.896 5.17704C106.782 5.04258 106.836 4.92784 106.946 4.87043C107.181 4.74738 107.36 5.1026 107.164 5.22639C107.047 5.29976 106.969 5.26238 106.896 5.17704ZM127.425 42.9052C127.093 42.5702 127.668 42.2697 127.84 42.5595C127.982 42.8021 127.656 43.14 127.425 42.9052ZM128.79 40.8566C128.635 40.682 128.721 40.5292 128.88 40.4689C129.188 40.3528 129.366 40.8793 128.975 40.9463C128.921 40.9551 128.846 40.9201 128.79 40.8566ZM130.115 38.8472C130.005 38.7056 130.047 38.5832 130.131 38.5161C130.426 38.2811 130.78 38.7878 130.381 38.9367C130.295 38.9693 130.201 38.9595 130.115 38.8472ZM129.389 35.4325C129.848 35.3041 129.358 35.8809 129.389 35.4325ZM130.633 33.6654C130.497 33.5356 130.546 33.4258 130.625 33.3671C130.853 33.1952 131.13 33.5519 130.85 33.6992C130.793 33.7288 130.711 33.7407 130.633 33.6654ZM129.649 30.2587C129.708 30.1701 129.858 30.1613 129.908 30.2111C130.121 30.4295 129.598 30.6838 129.649 30.2587ZM131.763 31.6726C131.686 31.5488 131.695 31.3877 131.861 31.3004C132.2 31.1237 132.445 31.671 132.07 31.8021C131.988 31.8318 131.865 31.8387 131.763 31.6726ZM130.843 28.4757C130.63 28.2332 131.036 28.0446 131.152 28.2424C131.255 28.4213 131.013 28.6678 130.843 28.4757ZM132.957 29.7681C132.627 29.3776 133.286 29.0689 133.468 29.4132C133.637 29.737 133.191 30.0442 132.957 29.7681ZM131.989 26.5154C131.707 26.2368 132.174 26.0345 132.306 26.2162C132.428 26.3871 132.207 26.7291 131.989 26.5154ZM140.62 40.5784C140.173 39.9796 140.719 39.182 141.409 39.3604C142.159 39.554 142.154 40.6296 141.404 40.856C141.275 40.8948 141.259 40.8809 141.194 40.8801C141.081 40.8773 140.795 40.8125 140.62 40.5784ZM133.331 24.1743C133.464 24.3179 133.443 24.4369 133.37 24.4972C133.026 24.7826 132.898 24.0155 133.331 24.1743ZM139.985 37.0592C139.845 36.8392 139.84 36.4659 140.1 36.2755C140.42 36.0417 140.981 36.1595 141.069 36.6823C141.171 37.2892 140.313 37.5754 139.985 37.0592ZM142.588 42.0242C142.281 41.611 142.383 41.2003 142.609 40.9659C142.999 40.5583 143.688 40.6599 143.934 41.1557C144.131 41.554 144.015 42.0472 143.534 42.2619C143.161 42.4282 142.813 42.325 142.588 42.0242ZM139.236 33.7586C138.678 33.0491 139.989 32.4177 140.175 33.3327C140.273 33.8199 139.583 34.1995 139.236 33.7586ZM141.993 38.4645C141.763 38.1061 141.955 37.5048 142.499 37.4876C143.047 37.4706 143.425 38.2678 142.908 38.6366C142.613 38.8473 142.242 38.8528 141.993 38.4645ZM144.477 43.3073C144.244 42.8844 144.455 42.1737 145.12 42.1202C145.887 42.0603 146.3 43.1089 145.69 43.5539C145.401 43.7631 145.034 43.7492 144.864 43.6811C144.745 43.6338 144.594 43.5205 144.477 43.3073ZM134.137 22.2604C134.185 22.2044 134.295 22.1521 134.356 22.1717C134.436 22.2024 134.498 22.3537 134.46 22.4224C134.32 22.6228 134.068 22.4444 134.137 22.2604ZM138.308 30.4644C138.037 30.138 138.153 29.6295 138.642 29.5512C139.325 29.4438 139.505 30.581 138.744 30.6515C138.634 30.661 138.433 30.616 138.308 30.4644ZM141.276 35.1071C141.039 34.7834 141.131 34.4323 141.442 34.2578C142.017 33.9348 142.592 34.7342 142.15 35.1577C141.857 35.4378 141.489 35.3959 141.276 35.1071ZM137.315 27.1222C137.084 26.836 137.168 26.4389 137.569 26.3305C138.036 26.2032 138.471 27.0274 137.833 27.2687C137.637 27.3432 137.47 27.3113 137.315 27.1222ZM144.011 39.8848C143.778 39.5608 143.905 38.9379 144.482 38.8845C145.147 38.8235 145.415 39.7865 144.82 40.0903C144.513 40.2463 144.229 40.1936 144.011 39.8848ZM136.292 23.7143C136.181 23.5477 136.222 23.409 136.317 23.3176C136.696 22.9597 137.192 23.7379 136.591 23.8689C136.502 23.8877 136.377 23.8394 136.292 23.7143ZM140.333 31.7394C139.832 30.9882 141.168 30.3254 141.434 31.2748C141.611 31.9026 140.695 32.2828 140.333 31.7394ZM143.31 36.4798C142.935 35.9789 143.496 35.3538 144.009 35.5677C144.665 35.8429 144.315 36.9242 143.6 36.6991C143.51 36.6705 143.398 36.598 143.31 36.4798ZM139.375 28.4619C138.909 27.8648 139.747 27.1695 140.242 27.6073C140.633 27.9551 140.451 28.693 139.858 28.7065C139.757 28.7087 139.531 28.6642 139.375 28.4619ZM146.036 41.2828C145.504 40.5642 146.678 39.9161 147.049 40.6403C147.361 41.2507 146.486 41.8922 146.036 41.2828ZM138.357 25.0308C138.192 24.7682 138.3 24.4719 138.546 24.3518C139.05 24.1063 139.573 24.9365 138.979 25.2262C138.714 25.3557 138.504 25.2623 138.357 25.0308ZM142.431 33.1217C142.242 32.8567 142.271 32.5193 142.442 32.3281C143.128 31.5664 144.123 32.9071 143.2 33.3256C142.883 33.4684 142.632 33.4012 142.431 33.1217ZM145.36 37.8037C145.168 37.5164 145.242 37.1812 145.557 37.0206C146.219 36.6817 146.709 37.7551 145.974 38.0247C145.775 38.0968 145.534 38.0646 145.36 37.8037ZM137.382 21.7207C137.191 21.5117 137.279 21.2782 137.537 21.219C137.818 21.1562 138.076 21.6375 137.681 21.7937C137.597 21.828 137.478 21.8261 137.382 21.7207ZM141.398 29.7384C140.988 29.0611 141.924 28.3547 142.461 28.8683C142.82 29.2129 142.712 29.8075 142.303 30.0157C141.959 30.1923 141.62 30.1012 141.398 29.7384ZM148.053 42.6646C147.469 41.9547 148.781 41.2724 149.024 42.1821C149.13 42.5743 148.686 42.9253 148.352 42.8595C148.238 42.8368 148.138 42.768 148.053 42.6646ZM140.439 26.42C140.208 26.0956 140.323 25.6527 140.661 25.4831C141.048 25.2883 141.548 25.5449 141.589 26.0116C141.644 26.6435 140.786 26.9027 140.439 26.42ZM147.44 39.1938C147.212 38.9109 147.285 38.595 147.557 38.4496C148.267 38.0713 148.593 39.3205 147.812 39.373C147.69 39.3806 147.557 39.3363 147.44 39.1938ZM139.439 23.0202C139.018 22.447 139.944 22.0145 140.217 22.5135C140.484 23.0006 139.779 23.4829 139.439 23.0202ZM138.439 19.6216C138.173 19.3711 138.622 19.1039 138.755 19.3644C138.855 19.5589 138.617 19.7884 138.439 19.6216ZM146.603 35.7945C146.405 35.5364 146.443 35.1752 146.695 35.0022C147.017 34.7802 147.548 34.9192 147.598 35.4013C147.618 35.5715 147.564 35.8961 147.153 36.0065C146.984 36.0518 146.755 35.9916 146.603 35.7945ZM149.434 40.4856C149.287 40.2825 149.319 40.045 149.477 39.9196C149.967 39.5307 150.465 40.3042 149.991 40.5924C149.788 40.7165 149.58 40.6841 149.434 40.4856ZM145.587 32.4848C145.256 32.0304 145.484 31.4929 145.922 31.3297C146.698 31.0391 147.302 32.157 146.654 32.6414C146.253 32.9405 145.818 32.8011 145.587 32.4848ZM148.686 37.1029C148.492 36.859 148.558 36.4586 148.939 36.3515C149.421 36.2159 149.856 37.0727 149.154 37.2741C149.017 37.3135 148.814 37.2666 148.686 37.1029ZM139.353 17.3924C139.382 17.2405 139.579 17.196 139.651 17.3053C139.768 17.48 139.454 17.724 139.353 17.3924ZM147.686 33.7848C147.453 33.4643 147.507 33.0492 147.817 32.8318C148.191 32.5676 148.75 32.6931 148.899 33.2227C149.091 33.9005 148.115 34.3787 147.686 33.7848ZM146.563 30.426C146.322 30.0404 146.405 29.5441 146.721 29.2784C146.957 29.0791 147.372 28.9959 147.668 29.1108C148.389 29.3907 148.362 30.4452 147.703 30.769C147.239 30.9966 146.808 30.8158 146.563 30.426ZM150.743 38.3635C150.414 37.9124 151.136 37.5579 151.359 37.9767C151.535 38.3116 151.034 38.7642 150.743 38.3635ZM149.783 35.0447C149.581 34.7612 149.657 34.3585 149.988 34.1969C150.8 33.7985 151.206 35.2267 150.292 35.297C150.149 35.308 149.93 35.2492 149.783 35.0447ZM148.702 31.7667C148.396 31.3288 148.531 30.7809 148.964 30.547C149.986 29.9956 150.718 31.5539 149.745 32.0367C149.323 32.2463 148.93 32.091 148.702 31.7667ZM152.534 26.5964C152.661 26.9226 152.563 27.332 152.766 27.4293C153.1 27.3428 153.505 27.2323 153.811 27.0934C153.855 26.9054 153.69 26.7216 153.619 26.543C153.513 26.2748 153.56 25.964 153.386 25.7495C153.082 25.7657 152.674 25.8981 152.366 26.0536C152.318 26.2404 152.453 26.3847 152.534 26.5964ZM150.808 33.0026C150.548 32.6143 150.678 32.0751 151.168 31.8952C151.882 31.634 152.44 32.5923 151.964 33.0947C151.597 33.482 151.061 33.3777 150.808 33.0026ZM151.809 30.9923C151.319 30.3214 151.869 29.3622 152.768 29.5478C153.553 29.7096 153.663 30.9652 152.868 31.2945C152.666 31.3793 152.465 31.3633 152.415 31.3583C152.215 31.3333 151.967 31.2069 151.809 30.9923ZM148.697 20.5681C148.501 20.2841 148.53 19.9044 148.741 19.6786C149.117 19.2776 149.822 19.4161 149.985 19.9897C150.058 20.2439 149.934 20.5891 149.731 20.7405C149.364 21.0157 148.939 20.9156 148.697 20.5681ZM150.667 21.8112C150.443 21.4016 150.57 20.8638 151.009 20.6316C151.436 20.4067 151.981 20.5541 152.205 21.0071C152.425 21.4488 152.292 22.0053 151.7 22.2259C151.313 22.3719 150.911 22.2604 150.667 21.8112ZM159.162 37.84C159.031 37.6701 159.064 37.4763 159.235 37.3794C159.7 37.1172 159.894 37.901 159.429 37.9692C159.363 37.9802 159.252 37.9569 159.162 37.84ZM149.715 18.2672C149.313 17.5977 150.403 17.0755 150.703 17.777C150.892 18.2175 150.381 18.7064 149.957 18.5101C149.867 18.4679 149.791 18.3916 149.715 18.2672ZM158.081 34.4808C157.943 34.23 157.964 33.8062 158.447 33.6732C159.011 33.518 159.344 34.3638 158.921 34.67C158.63 34.8804 158.272 34.8288 158.081 34.4808ZM161.237 39.0111C161.132 38.9071 161.111 38.7468 161.204 38.6627C161.494 38.4053 161.868 38.934 161.446 39.0679C161.401 39.0826 161.331 39.1048 161.237 39.0111ZM151.797 19.6562C151.534 19.3159 151.601 18.8553 151.881 18.6454C152.371 18.2796 152.995 18.5627 153.06 19.1501C153.126 19.757 152.247 20.2381 151.797 19.6562ZM160.228 35.7168C159.789 35.1779 160.691 34.702 160.965 35.2101C161.202 35.6487 160.57 36.1378 160.228 35.7168ZM150.781 16.0633C150.68 15.948 150.647 15.7461 150.669 15.6743C150.881 15.0233 151.706 15.6566 151.356 16.0406C151.17 16.2434 150.915 16.213 150.781 16.0633ZM159.123 32.4301C158.839 32.0509 158.925 31.5475 159.368 31.34C159.741 31.1645 160.352 31.3499 160.411 31.9329C160.468 32.549 159.577 33.0406 159.123 32.4301ZM163.173 40.1492C163.075 40.0232 163.098 39.8955 163.125 39.8498C163.357 39.4576 163.937 39.9932 163.513 40.2225C163.364 40.3035 163.264 40.2657 163.173 40.1492ZM153.798 20.9237C153.544 20.5749 153.587 20.1854 153.785 19.9214C154.197 19.3715 154.97 19.5566 155.216 20.0387C155.382 20.3609 155.292 20.7484 155.124 20.9515C154.738 21.4211 154.09 21.3245 153.798 20.9237ZM162.319 36.8386C162.091 36.5891 162.2 36.3135 162.507 36.2408C162.843 36.1618 163.133 36.7337 162.682 36.9207C162.564 36.9699 162.431 36.9638 162.319 36.8386ZM152.807 17.2979C152.499 16.8907 152.877 16.3238 153.375 16.4915C153.831 16.6448 153.856 17.285 153.397 17.4699C153.147 17.5709 152.97 17.5134 152.807 17.2979ZM165.33 40.7138C165.749 40.6766 165.914 41.277 165.506 41.4341C165.101 41.5897 164.732 40.8967 165.33 40.7138ZM161.238 33.521C160.807 32.955 161.647 32.2863 162.089 32.7555C162.381 33.0655 162.317 33.7206 161.697 33.7559C161.605 33.7613 161.387 33.7171 161.238 33.521ZM160.1 30.2503C159.718 29.7396 159.905 29.1925 160.394 28.9741C160.709 28.8331 161.062 28.8989 161.268 29.066C161.741 29.4462 161.69 30.2609 161.061 30.5201C160.693 30.6726 160.328 30.5557 160.1 30.2503ZM164.312 37.9284C164.055 37.6139 164.51 37.2497 164.751 37.4691C165.063 37.7564 164.612 38.2978 164.312 37.9284ZM154.874 18.5743C154.816 18.5017 154.722 18.3206 154.713 18.2097C154.672 17.7246 155.352 17.3134 155.765 17.6883C156.433 18.2946 155.419 19.2693 154.874 18.5743ZM167.023 42.4167C166.642 41.878 167.531 41.3663 167.817 41.942C168.063 42.4378 167.351 42.8815 167.023 42.4167ZM163.345 34.5946C163.152 34.3399 163.221 33.9931 163.581 33.8921C164.021 33.7684 164.289 34.4216 163.982 34.6616C163.77 34.829 163.505 34.8088 163.345 34.5946ZM153.784 14.9567C153.442 14.5183 154.244 14.1663 154.376 14.683C154.46 15.0147 153.99 15.2186 153.784 14.9567ZM162.247 31.3246C161.961 30.9415 162.058 30.5283 162.396 30.3224C163.073 29.9103 163.743 30.7597 163.314 31.3203C163.026 31.6965 162.498 31.6617 162.247 31.3246ZM166.281 39.0113C165.966 38.5672 166.775 38.2321 166.904 38.7622C166.979 39.0635 166.513 39.3362 166.281 39.0113ZM160.997 27.8671C160.828 27.5601 160.867 27.1097 161 26.9377C161.459 26.34 162.228 26.5497 162.496 26.9423C162.801 27.3915 162.65 28.0134 162.176 28.2524C161.725 28.479 161.235 28.3027 160.997 27.8671ZM168.967 43.4905L168.943 43.4823C168.557 42.8643 169.482 42.3143 169.86 42.8061C170.132 43.163 169.939 43.7146 169.436 43.743C169.318 43.7498 169.1 43.6766 168.967 43.4905ZM165.419 35.6446C165.151 35.2708 165.724 34.8932 165.962 35.2346C166.201 35.5739 165.693 36.0262 165.419 35.6446ZM159.956 24.5498C159.563 23.9885 159.754 23.3815 160.325 23.1355C160.801 22.9304 161.342 23.1543 161.553 23.576C161.81 24.0934 161.564 24.6232 161.112 24.8442C160.68 25.055 160.252 24.9703 159.956 24.5498ZM155.835 16.1598C155.481 15.6435 156.292 15.194 156.572 15.6927C156.826 16.1466 156.152 16.6233 155.835 16.1598ZM164.378 32.3663L164.355 32.3575C163.902 31.7085 164.915 31.2254 165.222 31.7867C165.515 32.3275 164.751 32.8488 164.378 32.3663ZM168.259 40.1492C167.8 39.6022 168.81 39.1147 168.988 39.7871C169.082 40.1493 168.548 40.4942 168.259 40.1492ZM163.233 29.0388C162.956 28.6677 163.06 28.162 163.463 27.9563C164.127 27.6166 164.666 28.3595 164.478 28.8654C164.284 29.3916 163.567 29.487 163.233 29.0388ZM170.97 44.5158C170.707 44.1534 170.885 43.5693 171.427 43.5221C172.08 43.4662 172.332 44.4172 171.753 44.7125C171.454 44.8649 171.187 44.8168 170.97 44.5158ZM167.413 36.6939C167.293 36.5036 167.356 36.333 167.511 36.2407C167.912 36.0049 168.262 36.6369 167.825 36.8332C167.644 36.9129 167.519 36.862 167.413 36.6939ZM162.055 25.6074C161.768 25.1647 161.913 24.5817 162.43 24.3717C163.366 23.9899 164.057 25.3521 163.195 25.8696C162.769 26.1256 162.306 25.9936 162.055 25.6074ZM170.211 41.1986C169.716 40.5759 170.812 39.9859 171.072 40.7315C171.235 41.2094 170.565 41.6398 170.211 41.1986ZM160.998 22.1762C160.673 21.7403 160.843 21.2001 161.236 20.9874C162.083 20.5328 162.877 21.7254 162.137 22.3168C161.758 22.6209 161.252 22.516 160.998 22.1762ZM165.396 30.0653C165.129 29.723 165.288 29.2467 165.763 29.1771C166.42 29.0796 166.618 30.2313 165.824 30.2766C165.722 30.2832 165.53 30.2355 165.396 30.0653ZM164.22 26.6731C163.662 25.8464 165.036 25.1172 165.426 26.0144C165.587 26.3858 165.386 26.7898 165.033 26.9352C164.715 27.0664 164.424 26.9812 164.22 26.6731ZM172.223 42.1998C171.927 41.8388 172.159 41.3048 172.63 41.3109C173.15 41.3191 173.391 42.1465 172.788 42.3622C172.631 42.4186 172.396 42.4111 172.223 42.1998ZM163.073 23.2254C162.427 22.2369 164.288 21.529 164.424 22.777C164.503 23.4907 163.488 23.8608 163.073 23.2254ZM171.409 38.8081C171.247 38.5899 171.29 38.3355 171.516 38.211C172.097 37.8889 172.39 38.8961 171.755 38.98C171.678 38.9906 171.522 38.9612 171.409 38.8081ZM162.009 19.7366C161.771 19.4101 161.886 18.9721 162.215 18.8079C162.871 18.4769 163.389 19.3279 162.979 19.7807C162.675 20.1151 162.228 20.0369 162.009 19.7366ZM166.391 27.7149C165.898 27.0701 167.006 26.4607 167.314 27.1754C167.401 27.3779 167.384 27.6967 167.069 27.863C166.791 28.0096 166.555 27.932 166.391 27.7149ZM174.226 43.0223C173.88 42.4141 174.853 41.9673 175.14 42.5474C175.421 43.112 174.565 43.6184 174.226 43.0223ZM173.41 39.7533C173.084 39.2725 173.873 38.8114 174.133 39.3349C174.373 39.8202 173.679 40.1473 173.41 39.7533ZM164.099 20.8188C163.552 20.0578 164.922 19.446 165.16 20.3533C165.278 20.8036 164.74 21.1996 164.35 21.0377C164.252 20.9976 164.169 20.9151 164.099 20.8188ZM168.537 28.6682C168.199 28.202 168.992 27.8543 169.179 28.3309C169.323 28.7005 168.792 29.0167 168.537 28.6682ZM162.955 17.2496C162.815 17.0248 162.877 16.7279 163.159 16.6034C163.641 16.3918 164.057 17.1286 163.561 17.4129C163.308 17.5585 163.093 17.473 162.955 17.2496ZM176.381 43.9108C176.002 43.3541 176.949 42.9347 177.159 43.5241C177.312 43.96 176.681 44.3504 176.381 43.9108ZM175.511 40.6899C175.315 40.4547 175.382 40.1733 175.666 40.0675C176.09 39.9083 176.384 40.563 175.978 40.78C175.824 40.8625 175.653 40.8607 175.511 40.6899ZM170.686 29.6615C170.397 29.3682 170.908 29.0717 171.067 29.3715C171.154 29.5381 170.916 29.8948 170.686 29.6615ZM165.07 18.3395C164.738 17.8369 165.538 17.4522 165.783 17.9057C166.015 18.3366 165.378 18.8066 165.07 18.3395ZM169.548 26.2702C169.255 25.8942 169.846 25.5943 170.044 25.8827C170.254 26.1933 169.805 26.5988 169.548 26.2702ZM177.594 41.5128C177.312 41.1514 177.871 40.7831 178.104 41.0778C178.354 41.3931 177.889 41.8922 177.594 41.5128ZM167.209 19.398C167.054 19.1998 167.115 19.0151 167.235 18.9217C167.651 18.5907 168.132 19.3014 167.589 19.5119C167.461 19.5618 167.322 19.5442 167.209 19.398ZM172.971 30.5656C172.828 30.7011 172.694 30.5216 172.753 30.4119C172.896 30.2765 173.031 30.4565 172.971 30.5656ZM166.033 15.8845C165.946 15.7842 165.943 15.7229 165.959 15.6581C165.988 15.5461 166.248 15.3788 166.389 15.5464C166.572 15.766 166.263 16.1554 166.033 15.8845ZM171.713 27.2142C171.616 27.1292 171.619 27.0191 171.705 26.9557C172.061 26.6945 172.018 27.4875 171.713 27.2142ZM179.775 42.2875C179.497 42.0002 179.98 41.8063 180.107 42.0217C180.21 42.2015 179.961 42.4818 179.775 42.2875ZM178.814 39.0912C178.496 38.826 179.065 38.556 179.131 38.9142C179.144 38.9898 178.983 39.2299 178.814 39.0912ZM168.13 16.9018C168.016 16.7672 168.07 16.6526 168.18 16.5952C168.415 16.4722 168.594 16.8273 168.398 16.9511C168.281 17.0244 168.203 16.9871 168.13 16.9018ZM181.971 42.9743C181.948 42.9439 181.961 42.9255 181.956 42.9012L182.005 42.8765L182.045 42.9574C182.017 42.9747 182 42.955 181.971 42.9743ZM177.014 25.4097C176.965 23.4078 176.52 21.9037 175.662 20.8887C174.812 19.8833 173.484 19.3761 171.685 19.3761C170.011 19.3761 168.641 19.8561 167.561 20.8074C167.382 20.9677 167.216 21.1446 167.063 21.3367C167.056 21.3234 167.049 21.3101 167.041 21.2974C166.708 20.7569 165.788 21.3237 166.247 21.8938C166.339 22.0082 166.46 22.0664 166.58 22.0771C166.37 22.4724 166.199 22.9152 166.066 23.4058C165.55 23.0611 164.781 23.7381 165.261 24.3402C165.426 24.5474 165.642 24.5956 165.839 24.546C165.801 24.8221 165.773 25.1104 165.754 25.4098H167.499C167.629 25.5171 167.789 25.5347 167.983 25.4317C167.996 25.4247 168.008 25.4172 168.02 25.4098L177.014 25.4097ZM185.677 31.0095H168.164C168.245 30.878 168.258 30.7035 168.136 30.5425C168.063 30.4474 167.842 30.3481 167.643 30.4438C167.4 30.5617 167.358 30.8103 167.479 31.0092L165.778 31.0095C165.911 33.3471 166.719 35.1407 168.204 36.3819C168.613 36.7216 169.074 37.0141 169.588 37.2602C169.396 37.3332 169.259 37.5498 169.448 37.7831C169.683 38.0766 170.138 37.7768 170.028 37.4545C171.319 37.9784 172.907 38.2395 174.796 38.2395C175.419 38.2395 176.037 38.196 176.648 38.1103C176.657 38.1451 176.676 38.1817 176.707 38.2182C176.879 38.4248 177.117 38.2356 177.109 38.0376C178.135 37.8569 179.143 37.5553 180.133 37.1343C181.857 36.4002 183.218 35.6029 184.217 34.7602H185.182V42.4526C183.218 43.3221 181.362 43.9474 179.622 44.337C179.466 44.3717 179.31 44.4046 179.152 44.4361C179.147 44.4065 179.137 44.377 179.122 44.3476C178.955 44.0257 178.385 44.211 178.48 44.5601C177.115 44.791 175.645 44.9141 174.078 44.9251C173.965 44.5781 173.574 44.3142 173.144 44.6281C173.046 44.7001 172.981 44.8012 172.95 44.9132C169.574 44.8183 166.714 44.1815 164.369 42.9999C164.359 42.9936 164.349 42.9879 164.338 42.9821C164.32 42.9725 164.303 42.9642 164.286 42.9578C163.18 42.3919 162.19 41.7045 161.316 40.8939C159.185 38.9137 157.836 36.3148 157.272 33.0978C157.277 33.0607 157.278 33.0222 157.277 32.9821C157.274 32.8684 157.247 32.7669 157.204 32.6792C157.139 32.2563 157.088 31.823 157.05 31.3793C157.328 31.6705 157.782 31.7632 158.188 31.4811C158.419 31.3202 158.602 30.9681 158.53 30.6255C158.378 29.9013 157.459 29.6207 156.982 30.2081C156.973 29.9411 156.968 29.6708 156.968 29.397C156.968 29.0484 156.975 28.7048 156.989 28.3666C157.022 28.3564 157.056 28.3451 157.09 28.3323C157.269 28.2653 157.439 28.1104 157.664 28.1484C157.76 28.36 157.718 28.578 157.776 28.7799C157.872 29.1221 158.128 29.3817 158.404 29.4771C159.403 29.8226 160.266 28.4064 159.284 27.7089C159.051 27.545 158.693 27.53 158.393 27.6254C158.226 27.6789 158.058 27.8254 157.828 27.785C157.736 27.53 157.805 27.2369 157.693 26.9434C157.604 26.7155 157.394 26.5074 157.396 26.263C157.574 26.1647 157.797 26.169 158.002 26.104C158.218 26.0349 158.423 25.8664 158.634 25.9116C158.745 26.4542 158.837 27.0385 159.357 27.2487C159.698 27.3857 160.314 27.2655 160.603 26.8724C160.76 26.6589 160.784 26.288 160.72 26.047C160.552 25.4177 160.001 25.2093 159.574 25.2844C159.354 25.3225 159.142 25.5061 158.845 25.4836C158.725 25.3255 158.784 25.102 158.74 24.9099C158.602 24.2476 158.114 23.9695 157.617 24.0187C157.68 23.781 157.748 23.5471 157.82 23.3165C157.839 23.351 157.859 23.3847 157.882 23.4184C158.169 23.8458 158.569 23.9277 159.07 23.6974C159.623 23.4429 159.748 22.8652 159.51 22.3893C159.298 21.9651 158.78 21.7813 158.341 21.8967C158.491 21.5422 158.654 21.1969 158.829 20.8607C158.843 20.8907 158.858 20.9197 158.876 20.9482C159.397 21.7923 160.755 21.0852 160.261 20.1599C160.136 19.9229 159.846 19.6922 159.487 19.7305C159.697 19.4062 159.92 19.0917 160.156 18.7871C160.322 18.8829 160.525 18.8842 160.751 18.7465C161.073 18.5499 161.085 18.1928 160.964 17.9542C160.951 17.9286 160.937 17.905 160.922 17.8827C160.976 17.8245 161.03 17.7664 161.085 17.7089C163.831 14.8368 167.602 13.396 172.387 13.396C176.8 13.396 180.117 14.6196 182.344 17.0743C184.563 19.5303 185.677 23.0544 185.677 27.6661L185.677 31.0095ZM158.323 14.3205L157.077 18.7314C156.736 18.9374 156.644 19.3498 156.808 19.6827L156.52 20.7024C156.267 20.715 156.015 20.8278 155.835 21.0431C155.585 21.3435 155.57 21.7876 155.832 22.1756C155.891 22.2628 155.962 22.3377 156.042 22.398L155.926 22.8068C155.741 22.7707 155.48 22.7801 155.264 22.8605C155.092 22.9245 154.765 23.0714 154.64 23.2303C154.552 23.3437 154.534 23.635 154.549 23.8616C154.572 24.2138 154.812 24.4938 154.829 24.8325C154.675 24.9584 154.5 24.9748 154.286 25.0409C154.127 25.0898 153.871 25.213 153.752 25.1046C153.607 24.9709 153.645 24.641 153.553 24.4158C153.438 24.1412 153.233 24.0048 153.198 23.7439C153.552 23.597 154.179 23.5942 154.471 23.2136C154.601 23.0424 154.561 22.5645 154.472 22.324C153.983 20.999 152.209 21.8158 152.571 22.9253C152.665 23.2154 152.847 23.341 152.932 23.654C152.494 23.7911 151.872 23.7977 151.572 24.2075C151.44 24.3868 151.454 24.7288 151.497 24.9918C151.541 25.2646 151.781 25.5506 151.689 25.8246C151.535 25.9192 151.33 25.9221 151.146 25.9925C150.936 26.0733 150.747 26.2446 150.547 26.2093C150.477 25.9409 150.537 25.6316 150.412 25.327C150.318 25.0935 150.13 24.9153 150.042 24.6634C150.444 24.5551 151.066 24.5823 151.37 24.1664C151.516 23.9661 151.498 23.4963 151.381 23.2122C151.138 22.6168 150.546 22.4772 150.098 22.6591C149.5 22.8994 149.324 23.5088 149.567 24.0318C149.656 24.223 149.81 24.371 149.888 24.5978C149.384 24.6729 148.716 24.7678 148.496 25.2484C148.371 25.5239 148.388 25.9166 148.542 26.235C148.628 26.4132 148.789 26.5663 148.831 26.7779C148.349 26.8834 147.865 26.8739 147.568 27.2835C147.276 27.6853 147.396 28.4288 147.887 28.7399C148.322 29.0157 149.076 28.8093 149.319 28.3323C149.542 27.8978 149.308 27.415 149.009 26.8514C149.263 26.7655 149.567 26.8046 149.857 26.6927C150.04 26.6224 150.228 26.4606 150.425 26.4921C150.487 26.7674 150.411 27.0851 150.535 27.4053C150.625 27.638 150.834 27.8283 150.873 28.0864C150.454 28.1483 149.768 28.2588 149.569 28.7131C149.454 28.9749 149.463 29.3142 149.606 29.6026C149.917 30.23 151.013 30.3739 151.377 29.5916C151.565 29.1919 151.364 28.7241 151.091 28.1601C151.299 28.0881 151.531 28.1192 151.77 28.0653C151.99 28.0153 152.222 27.8502 152.45 27.8892C152.58 28.165 152.524 28.4767 152.65 28.7392C152.911 29.2889 153.441 29.4715 153.982 29.2684C154.019 29.2543 154.066 29.2357 154.116 29.2139L152.868 33.6319C152.828 33.7052 152.803 33.7868 152.8 33.8736L152.314 35.5952C151.974 35.5682 151.599 35.9268 151.905 36.3133C151.957 36.3782 152.014 36.4222 152.072 36.4495L150.174 43.1705C149.868 43.3209 149.802 43.6557 149.962 43.9195L149.908 44.1106H147.844C147.703 43.7028 147.257 43.3904 146.764 43.6469C146.569 43.7481 146.443 43.9197 146.389 44.1106H144.368C144.032 43.872 143.567 43.8507 143.202 44.1106H142.613C142.978 43.6756 142.876 42.9851 142.425 42.6701C142.189 42.5056 141.796 42.443 141.471 42.5787C140.968 42.7887 140.818 43.2553 140.878 43.66C140.9 43.8055 140.985 43.9541 140.998 44.1106H140.636L140.295 42.8669C141.186 42.4294 140.711 41.0718 139.823 41.1445L139.336 39.3678C139.425 39.3483 139.514 39.3098 139.598 39.249C140.156 38.8485 139.691 38.072 139.221 38.0434C139.132 38.0378 139.052 38.0467 138.98 38.068L138.387 35.9028C138.708 35.9041 139.036 35.6181 138.899 35.2373C138.766 34.8646 138.391 34.8346 138.135 34.9849L137.472 32.5629C137.829 32.5862 138.206 32.1948 137.892 31.7804C137.726 31.5618 137.436 31.5785 137.24 31.7175L136.569 29.2697C136.86 29.242 137.112 28.8935 136.932 28.5835C136.797 28.354 136.537 28.3382 136.342 28.4406L135.636 25.8662C135.779 25.7813 135.87 25.5979 135.786 25.4181C135.721 25.2804 135.592 25.2306 135.465 25.2422L135.134 24.0332L134.256 27.2503C134.05 27.3158 133.892 27.5416 134.095 27.7907L134.105 27.8022L131.735 36.4924C131.663 36.4538 131.576 36.4457 131.489 36.491C131.339 36.5685 131.292 36.7044 131.391 36.8623C131.449 36.9572 131.524 37.0024 131.593 37.0115L129.819 43.5125C129.495 43.3984 129.066 43.733 129.249 44.1106H120.334L111.994 14.3204H121.109L125.771 34.8506L131.578 14.3204H139.292L140.882 20.2803C140.58 20.2401 140.234 20.5948 140.504 20.9379C140.627 21.0918 140.789 21.1182 140.918 21.0767C140.98 21.0564 141.032 21.0307 141.074 21.0005L141.716 23.4059L141.71 23.4087C141.339 23.5929 141.268 24.0308 141.464 24.3366C141.615 24.5718 141.832 24.6705 142.049 24.6537L142.603 26.7295C142.328 26.9818 142.235 27.4372 142.464 27.7764C142.583 27.9509 142.768 28.0725 142.972 28.1124L143.539 30.2385C143.338 30.4693 143.265 30.8073 143.481 31.1269C143.576 31.2684 143.706 31.3743 143.856 31.4283L144.474 33.7429C144.339 33.9547 144.348 34.2445 144.513 34.4702C144.567 34.5446 144.637 34.6068 144.716 34.6512L144.769 34.8506L144.805 34.6916C144.953 34.7446 145.127 34.7385 145.304 34.6424C145.858 34.3429 145.585 33.5421 145.079 33.4661L146.41 27.5067C146.636 27.4855 146.86 27.3828 147.035 27.1841C147.356 26.8212 147.307 26.0594 146.806 25.7346L146.905 25.2907C147.288 25.4964 147.815 25.4414 148.133 25.0045C148.577 24.3956 148.037 23.4786 147.304 23.5072L147.509 22.5893C147.524 22.6357 147.543 22.6805 147.566 22.7231C148.112 23.7364 149.609 22.9038 149.105 21.9188C148.845 21.4125 148.2 21.3235 147.789 21.6237C147.76 21.6445 147.734 21.6669 147.709 21.6903L149.356 14.3204L158.323 14.3205ZM154.687 27.192L154.53 27.7503C154.446 27.5747 154.353 27.4087 154.425 27.3124C154.483 27.2373 154.581 27.2093 154.687 27.192Z" fill="white"/>
</mask>
<g mask="url(#mask0_110_79)">
<rect width="209.03" height="60" fill="url(#paint0_linear_110_79)"/>
</g>
<defs>
<linearGradient id="paint0_linear_110_79" x1="0" y1="30" x2="209.03" y2="30" gradientUnits="userSpaceOnUse">
<stop stop-color="#00D5BE"/>
<stop offset="0.5" stop-color="#96F7E4"/>
<stop offset="1" stop-color="#00D5BE"/>
</linearGradient>
</defs>
</svg>
